<svg width="113" height="98" viewBox="0 0 113 98" fill="none" xmlns="http://www.w3.org/2000/svg">
<g id="about_dots.svg" clip-path="url(#clip0_2_67)">
<path id="Vector" d="M17.8198 4.66891C17.5116 4.66891 17.2102 4.57772 16.9539 4.40686C16.6976 4.23601 16.4978 3.99316 16.3798 3.70904C16.2618 3.42491 16.231 3.11227 16.2911 2.81065C16.3513 2.50902 16.4997 2.23196 16.7177 2.0145C16.9357 1.79705 17.2134 1.64896 17.5157 1.58896C17.8181 1.52896 18.1315 1.55976 18.4163 1.67744C18.7011 1.79513 18.9445 1.99443 19.1158 2.25013C19.2871 2.50584 19.3785 2.80646 19.3785 3.114C19.3765 3.52578 19.2117 3.92015 18.9198 4.21133C18.6279 4.50251 18.2326 4.66696 17.8198 4.66891Z" fill="#9B9B9B"/>
<path id="Vector_2" d="M17.8198 18.0233C17.5112 18.0233 17.2096 17.9318 16.9531 17.7608C16.6966 17.5896 16.4969 17.3462 16.3791 17.0616C16.2614 16.7771 16.2309 16.4641 16.2917 16.1623C16.3524 15.8605 16.5016 15.5835 16.7204 15.3663C16.9391 15.1491 17.2175 15.0016 17.5203 14.9425C17.8232 14.8833 18.1368 14.9152 18.4215 15.034C18.7062 15.1528 18.9491 15.3533 19.1194 15.61C19.2898 15.8667 19.38 16.168 19.3785 16.4759C19.3765 16.887 19.2114 17.2805 18.9193 17.5705C18.6272 17.8605 18.2319 18.0233 17.8198 18.0233Z" fill="#9B9B9B"/>
<path id="Vector_3" d="M17.8198 31.3851C17.5116 31.3851 17.2102 31.2939 16.9539 31.1231C16.6976 30.9522 16.4978 30.7094 16.3798 30.4252C16.2618 30.1411 16.231 29.8285 16.2911 29.5268C16.3513 29.2252 16.4997 28.9482 16.7177 28.7307C16.9357 28.5132 17.2134 28.3651 17.5157 28.3051C17.8181 28.2451 18.1315 28.2759 18.4163 28.3936C18.7011 28.5113 18.9445 28.7106 19.1158 28.9663C19.2871 29.222 19.3785 29.5227 19.3785 29.8302C19.3785 30.0344 19.3382 30.2366 19.2598 30.4252C19.1815 30.6139 19.0667 30.7853 18.922 30.9297C18.7772 31.0741 18.6054 31.1886 18.4163 31.2667C18.2272 31.3449 18.0245 31.3851 17.8198 31.3851Z" fill="#9B9B9B"/>
<path id="Vector_4" d="M17.8198 44.7471C17.5103 44.747 17.2078 44.655 16.9509 44.4828C16.6939 44.3106 16.4942 44.066 16.3772 43.7801C16.2601 43.4942 16.2311 43.1801 16.2937 42.8777C16.3563 42.5753 16.5077 42.2983 16.7287 42.0821C16.9496 41.8659 17.2302 41.7202 17.5344 41.6636C17.8387 41.607 18.153 41.642 18.4373 41.7643C18.7215 41.8866 18.9628 42.0905 19.1304 42.3501C19.2981 42.6097 19.3844 42.9132 19.3785 43.2219C19.3688 43.6285 19.2005 44.0153 18.9095 44.3001C18.6184 44.5849 18.2275 44.7452 17.8198 44.7471Z" fill="#9B9B9B"/>
<path id="Vector_5" d="M17.8198 57.7369C17.5116 57.7369 17.2102 57.6457 16.9539 57.4749C16.6976 57.304 16.4978 57.0612 16.3798 56.7771C16.2618 56.4929 16.231 56.1803 16.2911 55.8787C16.3513 55.5771 16.4997 55.3 16.7177 55.0825C16.9357 54.8651 17.2134 54.717 17.5157 54.657C17.8181 54.597 18.1315 54.6278 18.4163 54.7455C18.7011 54.8632 18.9445 55.0625 19.1158 55.3182C19.2871 55.5739 19.3785 55.8745 19.3785 56.182C19.3785 56.5944 19.2143 56.9899 18.922 57.2815C18.6297 57.5731 18.2332 57.7369 17.8198 57.7369Z" fill="#9B9B9B"/>
<path id="Vector_6" d="M17.8198 71.0988C17.5116 71.0988 17.2102 71.0076 16.9539 70.8368C16.6976 70.6659 16.4978 70.4231 16.3798 70.1389C16.2618 69.8548 16.231 69.5422 16.2911 69.2405C16.3513 68.9389 16.4997 68.6619 16.7177 68.4444C16.9357 68.2269 17.2134 68.0788 17.5157 68.0189C17.8181 67.9589 18.1315 67.9896 18.4163 68.1073C18.7011 68.225 18.9445 68.4243 19.1158 68.68C19.2871 68.9357 19.3785 69.2364 19.3785 69.5439C19.3765 69.9557 19.2117 70.35 18.9198 70.6412C18.6279 70.9324 18.2326 71.0969 17.8198 71.0988Z" fill="#9B9B9B"/>
<path id="Vector_7" d="M17.8198 84.4607C17.5116 84.4607 17.2102 84.3695 16.9539 84.1986C16.6976 84.0278 16.4978 83.7849 16.3798 83.5008C16.2618 83.2167 16.231 82.904 16.2911 82.6024C16.3513 82.3008 16.4997 82.0237 16.7177 81.8063C16.9357 81.5888 17.2134 81.4407 17.5157 81.3807C17.8181 81.3207 18.1315 81.3515 18.4163 81.4692C18.7011 81.5869 18.9445 81.7862 19.1158 82.0419C19.2871 82.2976 19.3785 82.5982 19.3785 82.9058C19.3765 83.3175 19.2117 83.7119 18.9198 84.0031C18.6279 84.2943 18.2326 84.4587 17.8198 84.4607Z" fill="#9B9B9B"/>
<path id="Vector_8" d="M17.8198 97.8151C17.5116 97.8151 17.2102 97.7239 16.9539 97.553C16.6976 97.3822 16.4978 97.1393 16.3798 96.8552C16.2618 96.5711 16.231 96.2585 16.2911 95.9568C16.3513 95.6552 16.4997 95.3781 16.7177 95.1607C16.9357 94.9432 17.2134 94.7951 17.5157 94.7351C17.8181 94.6751 18.1315 94.7059 18.4163 94.8236C18.7011 94.9413 18.9445 95.1406 19.1158 95.3963C19.2871 95.652 19.3785 95.9526 19.3785 96.2602C19.3785 96.6726 19.2143 97.0681 18.922 97.3597C18.6297 97.6513 18.2332 97.8151 17.8198 97.8151Z" fill="#9B9B9B"/>
<path id="Vector_9" d="M2.15864 4.66891C1.85037 4.66891 1.54901 4.57772 1.29269 4.40686C1.03637 4.23601 0.836594 3.99316 0.718623 3.70904C0.600651 3.42491 0.569784 3.11227 0.629925 2.81065C0.690067 2.50902 0.838515 2.23196 1.0565 2.0145C1.27448 1.79705 1.55221 1.64896 1.85456 1.58896C2.15691 1.52896 2.4703 1.55976 2.75511 1.67744C3.03992 1.79513 3.28335 1.99443 3.45462 2.25013C3.62588 2.50584 3.7173 2.80646 3.7173 3.114C3.71534 3.52578 3.55049 3.92015 3.25861 4.21133C2.96673 4.50251 2.57142 4.66696 2.15864 4.66891Z" fill="#9B9B9B"/>
<path id="Vector_10" d="M2.15865 18.0233C1.85006 18.0233 1.54841 17.9318 1.29193 17.7608C1.03545 17.5896 0.835684 17.3462 0.717935 17.0616C0.600186 16.7771 0.569758 16.4641 0.630506 16.1623C0.691254 15.8605 0.840444 15.5835 1.05917 15.3663C1.2779 15.1491 1.55633 15.0016 1.85917 14.9425C2.16201 14.8833 2.47563 14.9152 2.76031 15.034C3.04498 15.1528 3.28789 15.3533 3.45826 15.61C3.62863 15.8667 3.71878 16.168 3.71731 16.4759C3.71534 16.887 3.55025 17.2805 3.25816 17.5705C2.96607 17.8605 2.57074 18.0233 2.15865 18.0233Z" fill="#9B9B9B"/>
<path id="Vector_11" d="M2.15864 31.3851C1.85037 31.3851 1.54901 31.2939 1.29269 31.1231C1.03637 30.9522 0.836594 30.7094 0.718623 30.4252C0.600651 30.1411 0.569784 29.8285 0.629925 29.5268C0.690067 29.2252 0.838515 28.9482 1.0565 28.7307C1.27448 28.5132 1.55221 28.3651 1.85456 28.3051C2.15691 28.2451 2.4703 28.2759 2.75511 28.3936C3.03992 28.5113 3.28335 28.7106 3.45462 28.9663C3.62588 29.222 3.7173 29.5227 3.7173 29.8302C3.7173 30.0344 3.67698 30.2366 3.59865 30.4252C3.52032 30.6139 3.40551 30.7853 3.26078 30.9297C3.11604 31.0741 2.94422 31.1886 2.75511 31.2667C2.56601 31.3449 2.36333 31.3851 2.15864 31.3851Z" fill="#9B9B9B"/>
<path id="Vector_12" d="M2.15862 44.7471C1.84909 44.747 1.54659 44.655 1.28966 44.4828C1.03273 44.3106 0.833022 44.066 0.715978 43.7801C0.598934 43.4942 0.569859 43.1801 0.632458 42.8777C0.695057 42.5753 0.846495 42.2983 1.06747 42.0821C1.28845 41.8659 1.56896 41.7202 1.87324 41.6636C2.17753 41.607 2.49182 41.642 2.77605 41.7643C3.06029 41.8866 3.3016 42.0905 3.46922 42.3501C3.63685 42.6097 3.7232 42.9132 3.71728 43.2219C3.70758 43.6285 3.53932 44.0153 3.24827 44.3001C2.95721 44.5849 2.56631 44.7452 2.15862 44.7471Z" fill="#9B9B9B"/>
<path id="Vector_13" d="M2.15864 57.7369C1.85037 57.7369 1.54901 57.6457 1.29269 57.4749C1.03637 57.304 0.836594 57.0612 0.718623 56.7771C0.600651 56.4929 0.569784 56.1803 0.629925 55.8787C0.690067 55.5771 0.838515 55.3 1.0565 55.0825C1.27448 54.8651 1.55221 54.717 1.85456 54.657C2.15691 54.597 2.4703 54.6278 2.75511 54.7455C3.03992 54.8632 3.28335 55.0625 3.45462 55.3182C3.62588 55.5739 3.7173 55.8745 3.7173 56.182C3.7173 56.5944 3.55308 56.9899 3.26078 57.2815C2.96847 57.5731 2.57202 57.7369 2.15864 57.7369Z" fill="#9B9B9B"/>
<path id="Vector_14" d="M2.15864 71.0988C1.85037 71.0988 1.54901 71.0076 1.29269 70.8368C1.03637 70.6659 0.836594 70.4231 0.718623 70.1389C0.600651 69.8548 0.569784 69.5422 0.629925 69.2405C0.690067 68.9389 0.838515 68.6619 1.0565 68.4444C1.27448 68.2269 1.55221 68.0788 1.85456 68.0189C2.15691 67.9589 2.4703 67.9896 2.75511 68.1073C3.03992 68.225 3.28335 68.4243 3.45462 68.68C3.62588 68.9357 3.7173 69.2364 3.7173 69.5439C3.71534 69.9557 3.55049 70.35 3.25861 70.6412C2.96673 70.9324 2.57142 71.0969 2.15864 71.0988Z" fill="#9B9B9B"/>
<path id="Vector_15" d="M2.15864 84.4607C1.85037 84.4607 1.54901 84.3695 1.29269 84.1986C1.03637 84.0278 0.836594 83.7849 0.718623 83.5008C0.600651 83.2167 0.569784 82.904 0.629925 82.6024C0.690067 82.3008 0.838515 82.0237 1.0565 81.8063C1.27448 81.5888 1.55221 81.4407 1.85456 81.3807C2.15691 81.3207 2.4703 81.3515 2.75511 81.4692C3.03992 81.5869 3.28335 81.7862 3.45462 82.0419C3.62588 82.2976 3.7173 82.5982 3.7173 82.9058C3.71534 83.3175 3.55049 83.7119 3.25861 84.0031C2.96673 84.2943 2.57142 84.4587 2.15864 84.4607Z" fill="#9B9B9B"/>
<path id="Vector_16" d="M2.15864 97.8151C1.85037 97.8151 1.54901 97.7239 1.29269 97.553C1.03637 97.3822 0.836594 97.1393 0.718623 96.8552C0.600651 96.5711 0.569784 96.2585 0.629925 95.9568C0.690067 95.6552 0.838515 95.3781 1.0565 95.1607C1.27448 94.9432 1.55221 94.7951 1.85456 94.7351C2.15691 94.6751 2.4703 94.7059 2.75511 94.8236C3.03992 94.9413 3.28335 95.1406 3.45462 95.3963C3.62588 95.652 3.7173 95.9526 3.7173 96.2602C3.7173 96.6726 3.55308 97.0681 3.26078 97.3597C2.96847 97.6513 2.57202 97.8151 2.15864 97.8151Z" fill="#9B9B9B"/>
<path id="Vector_17" d="M49.1422 3.92489C48.8339 3.92489 48.5325 3.8337 48.2762 3.66284C48.0199 3.49199 47.8201 3.24914 47.7021 2.96502C47.5842 2.68089 47.5533 2.36825 47.6134 2.06663C47.6736 1.76501 47.822 1.48795 48.04 1.27049C48.258 1.05303 48.5357 0.904938 48.8381 0.844941C49.1404 0.784945 49.4538 0.815737 49.7386 0.933425C50.0234 1.05111 50.2669 1.25041 50.4381 1.50612C50.6094 1.76182 50.7008 2.06244 50.7008 2.36998C50.6989 2.78176 50.534 3.17613 50.2421 3.46731C49.9502 3.75849 49.5549 3.92294 49.1422 3.92489Z" fill="#9B9B9B"/>
<path id="Vector_18" d="M49.1422 17.2793C48.8336 17.2793 48.5319 17.1879 48.2754 17.0167C48.019 16.8455 47.8192 16.6022 47.7014 16.3177C47.5837 16.0331 47.5533 15.7201 47.614 15.4182C47.6748 15.1164 47.824 14.8394 48.0427 14.6222C48.2614 14.4051 48.5398 14.2576 48.8427 14.1984C49.1455 14.1392 49.4591 14.1711 49.7438 14.2899C50.0285 14.4088 50.2714 14.6092 50.4418 14.8659C50.6121 15.1226 50.7023 15.4239 50.7008 15.7318C50.6988 16.1429 50.5338 16.5365 50.2417 16.8265C49.9496 17.1165 49.5542 17.2793 49.1422 17.2793Z" fill="#9B9B9B"/>
<path id="Vector_19" d="M49.1422 30.6411C48.8339 30.6411 48.5325 30.5499 48.2762 30.3791C48.0199 30.2082 47.8201 29.9654 47.7021 29.6812C47.5842 29.3971 47.5533 29.0845 47.6134 28.7829C47.6736 28.4812 47.822 28.2042 48.04 27.9867C48.258 27.7693 48.5357 27.6213 48.8381 27.5613C49.1404 27.5013 49.4538 27.532 49.7386 27.6497C50.0234 27.7673 50.2669 27.9667 50.4381 28.2224C50.6094 28.4781 50.7008 28.7787 50.7008 29.0862C50.7008 29.2904 50.6605 29.4926 50.5822 29.6812C50.5038 29.8699 50.389 30.0414 50.2443 30.1858C50.0996 30.3302 49.9277 30.4446 49.7386 30.5228C49.5495 30.6009 49.3468 30.6411 49.1422 30.6411Z" fill="#9B9B9B"/>
<path id="Vector_20" d="M49.1422 44.003C48.8326 44.0029 48.5301 43.9109 48.2732 43.7387C48.0163 43.5665 47.8166 43.3219 47.6995 43.036C47.5825 42.7502 47.5534 42.436 47.616 42.1336C47.6786 41.8312 47.83 41.5542 48.051 41.338C48.272 41.1218 48.5525 40.9761 48.8568 40.9195C49.1611 40.8629 49.4754 40.898 49.7596 41.0202C50.0438 41.1425 50.2851 41.3464 50.4528 41.606C50.6204 41.8656 50.7067 42.1691 50.7008 42.4778C50.6911 42.8844 50.5229 43.2712 50.2318 43.556C49.9407 43.8408 49.5498 44.0012 49.1422 44.003Z" fill="#9B9B9B"/>
<path id="Vector_21" d="M49.1422 56.9929C48.8339 56.9929 48.5325 56.9017 48.2762 56.7308C48.0199 56.56 47.8201 56.3171 47.7021 56.033C47.5842 55.7489 47.5533 55.4362 47.6134 55.1346C47.6736 54.833 47.822 54.5559 48.04 54.3385C48.258 54.121 48.5357 53.9729 48.8381 53.9129C49.1404 53.8529 49.4538 53.8837 49.7386 54.0014C50.0234 54.1191 50.2669 54.3184 50.4381 54.5741C50.6094 54.8298 50.7008 55.1304 50.7008 55.4379C50.7008 55.8503 50.5366 56.2458 50.2443 56.5374C49.952 56.829 49.5555 56.9929 49.1422 56.9929Z" fill="#9B9B9B"/>
<path id="Vector_22" d="M49.1422 70.3548C48.8339 70.3548 48.5325 70.2636 48.2762 70.0928C48.0199 69.9219 47.8201 69.6791 47.7021 69.3949C47.5842 69.1108 47.5533 68.7982 47.6134 68.4966C47.6736 68.1949 47.822 67.9179 48.04 67.7004C48.258 67.483 48.5357 67.3349 48.8381 67.2749C49.1404 67.2149 49.4538 67.2457 49.7386 67.3634C50.0234 67.481 50.2669 67.6803 50.4381 67.936C50.6094 68.1917 50.7008 68.4924 50.7008 68.7999C50.6989 69.2117 50.534 69.6061 50.2421 69.8972C49.9502 70.1884 49.5549 70.3529 49.1422 70.3548Z" fill="#9B9B9B"/>
<path id="Vector_23" d="M49.1422 83.7167C48.8339 83.7167 48.5325 83.6255 48.2762 83.4546C48.0199 83.2838 47.8201 83.0409 47.7021 82.7568C47.5842 82.4727 47.5533 82.16 47.6134 81.8584C47.6736 81.5568 47.822 81.2797 48.04 81.0623C48.258 80.8448 48.5357 80.6967 48.8381 80.6367C49.1404 80.5767 49.4538 80.6075 49.7386 80.7252C50.0234 80.8429 50.2669 81.0422 50.4381 81.2979C50.6094 81.5536 50.7008 81.8542 50.7008 82.1618C50.6989 82.5736 50.534 82.9679 50.2421 83.2591C49.9502 83.5503 49.5549 83.7147 49.1422 83.7167Z" fill="#9B9B9B"/>
<path id="Vector_24" d="M49.1422 97.0711C48.8339 97.0711 48.5325 96.9799 48.2762 96.8091C48.0199 96.6382 47.8201 96.3954 47.7021 96.1112C47.5842 95.8271 47.5533 95.5145 47.6134 95.2129C47.6736 94.9112 47.822 94.6342 48.04 94.4167C48.258 94.1992 48.5357 94.0512 48.8381 93.9912C49.1404 93.9312 49.4538 93.962 49.7386 94.0796C50.0234 94.1973 50.2669 94.3966 50.4381 94.6523C50.6094 94.908 50.7008 95.2087 50.7008 95.5162C50.7008 95.9286 50.5366 96.3241 50.2443 96.6157C49.952 96.9073 49.5555 97.0711 49.1422 97.0711Z" fill="#9B9B9B"/>
<path id="Vector_25" d="M33.481 3.92489C33.1727 3.92489 32.8714 3.8337 32.615 3.66284C32.3587 3.49199 32.1589 3.24914 32.041 2.96502C31.923 2.68089 31.8921 2.36825 31.9523 2.06663C32.0124 1.76501 32.1609 1.48795 32.3789 1.27049C32.5968 1.05303 32.8746 0.904938 33.1769 0.844941C33.4793 0.784945 33.7927 0.815737 34.0775 0.933425C34.3623 1.05111 34.6057 1.25041 34.777 1.50612C34.9482 1.76182 35.0396 2.06244 35.0396 2.36998C35.0377 2.78176 34.8728 3.17613 34.581 3.46731C34.2891 3.75849 33.8938 3.92294 33.481 3.92489Z" fill="#9B9B9B"/>
<path id="Vector_26" d="M33.481 17.2793C33.1724 17.2793 32.8708 17.1879 32.6143 17.0167C32.3578 16.8455 32.158 16.6022 32.0403 16.3177C31.9225 16.0331 31.8921 15.7201 31.9528 15.4182C32.0136 15.1164 32.1628 14.8394 32.3815 14.6222C32.6002 14.4051 32.8787 14.2576 33.1815 14.1984C33.4843 14.1392 33.798 14.1711 34.0827 14.2899C34.3673 14.4088 34.6102 14.6092 34.7806 14.8659C34.951 15.1226 35.0411 15.4239 35.0396 15.7318C35.0377 16.1429 34.8726 16.5365 34.5805 16.8265C34.2884 17.1165 33.8931 17.2793 33.481 17.2793Z" fill="#9B9B9B"/>
<path id="Vector_27" d="M33.481 30.6411C33.1727 30.6411 32.8714 30.5499 32.615 30.3791C32.3587 30.2082 32.1589 29.9654 32.041 29.6812C31.923 29.3971 31.8921 29.0845 31.9523 28.7829C32.0124 28.4812 32.1609 28.2042 32.3789 27.9867C32.5968 27.7693 32.8746 27.6213 33.1769 27.5613C33.4793 27.5013 33.7927 27.532 34.0775 27.6497C34.3623 27.7673 34.6057 27.9667 34.777 28.2224C34.9482 28.4781 35.0396 28.7787 35.0396 29.0862C35.0396 29.2904 34.9993 29.4926 34.921 29.6812C34.8427 29.8699 34.7279 30.0414 34.5831 30.1858C34.4384 30.3302 34.2666 30.4446 34.0775 30.5228C33.8884 30.6009 33.6857 30.6411 33.481 30.6411Z" fill="#9B9B9B"/>
<path id="Vector_28" d="M33.481 44.003C33.1715 44.0029 32.869 43.9109 32.612 43.7387C32.3551 43.5665 32.1554 43.3219 32.0383 43.036C31.9213 42.7502 31.8922 42.436 31.9548 42.1336C32.0174 41.8312 32.1689 41.5542 32.3898 41.338C32.6108 41.1218 32.8913 40.9761 33.1956 40.9195C33.4999 40.8629 33.8142 40.898 34.0984 41.0202C34.3827 41.1425 34.624 41.3464 34.7916 41.606C34.9592 41.8656 35.0456 42.1691 35.0396 42.4778C35.0299 42.8844 34.8617 43.2712 34.5706 43.556C34.2796 43.8408 33.8887 44.0012 33.481 44.003Z" fill="#9B9B9B"/>
<path id="Vector_29" d="M33.481 56.9929C33.1727 56.9929 32.8714 56.9017 32.615 56.7308C32.3587 56.56 32.1589 56.3171 32.041 56.033C31.923 55.7489 31.8921 55.4362 31.9523 55.1346C32.0124 54.833 32.1609 54.5559 32.3789 54.3385C32.5968 54.121 32.8746 53.9729 33.1769 53.9129C33.4793 53.8529 33.7927 53.8837 34.0775 54.0014C34.3623 54.1191 34.6057 54.3184 34.777 54.5741C34.9482 54.8298 35.0396 55.1304 35.0396 55.4379C35.0396 55.8503 34.8754 56.2458 34.5831 56.5374C34.2908 56.829 33.8944 56.9929 33.481 56.9929Z" fill="#9B9B9B"/>
<path id="Vector_30" d="M33.481 70.3548C33.1727 70.3548 32.8714 70.2636 32.615 70.0928C32.3587 69.9219 32.1589 69.6791 32.041 69.3949C31.923 69.1108 31.8921 68.7982 31.9523 68.4966C32.0124 68.1949 32.1609 67.9179 32.3789 67.7004C32.5968 67.483 32.8746 67.3349 33.1769 67.2749C33.4793 67.2149 33.7927 67.2457 34.0775 67.3634C34.3623 67.481 34.6057 67.6803 34.777 67.936C34.9482 68.1917 35.0396 68.4924 35.0396 68.7999C35.0377 69.2117 34.8728 69.6061 34.581 69.8972C34.2891 70.1884 33.8938 70.3529 33.481 70.3548Z" fill="#9B9B9B"/>
<path id="Vector_31" d="M33.481 83.7167C33.1727 83.7167 32.8714 83.6255 32.615 83.4546C32.3587 83.2838 32.1589 83.0409 32.041 82.7568C31.923 82.4727 31.8921 82.16 31.9523 81.8584C32.0124 81.5568 32.1609 81.2797 32.3789 81.0623C32.5968 80.8448 32.8746 80.6967 33.1769 80.6367C33.4793 80.5767 33.7927 80.6075 34.0775 80.7252C34.3623 80.8429 34.6057 81.0422 34.777 81.2979C34.9482 81.5536 35.0396 81.8542 35.0396 82.1618C35.0377 82.5736 34.8728 82.9679 34.581 83.2591C34.2891 83.5503 33.8938 83.7147 33.481 83.7167Z" fill="#9B9B9B"/>
<path id="Vector_32" d="M33.481 97.0711C33.1727 97.0711 32.8714 96.9799 32.615 96.8091C32.3587 96.6382 32.1589 96.3954 32.041 96.1112C31.923 95.8271 31.8921 95.5145 31.9523 95.2129C32.0124 94.9112 32.1609 94.6342 32.3789 94.4167C32.5968 94.1992 32.8746 94.0512 33.1769 93.9912C33.4793 93.9312 33.7927 93.962 34.0775 94.0796C34.3623 94.1973 34.6057 94.3966 34.777 94.6523C34.9482 94.908 35.0396 95.2087 35.0396 95.5162C35.0396 95.9286 34.8754 96.3241 34.5831 96.6157C34.2908 96.9073 33.8944 97.0711 33.481 97.0711Z" fill="#9B9B9B"/>
<path id="Vector_33" d="M79.7187 4.66891C79.4104 4.66891 79.1091 4.57772 78.8528 4.40686C78.5965 4.23601 78.3967 3.99316 78.2787 3.70904C78.1607 3.42491 78.1299 3.11227 78.19 2.81065C78.2502 2.50902 78.3986 2.23196 78.6166 2.0145C78.8346 1.79705 79.1123 1.64896 79.4146 1.58896C79.717 1.52896 80.0304 1.55976 80.3152 1.67744C80.6 1.79513 80.8434 1.99443 81.0147 2.25013C81.186 2.50584 81.2774 2.80646 81.2774 3.114C81.2754 3.52578 81.1106 3.92015 80.8187 4.21133C80.5268 4.50251 80.1315 4.66696 79.7187 4.66891Z" fill="#9B9B9B"/>
<path id="Vector_34" d="M79.7187 18.0233C79.4101 18.0233 79.1085 17.9318 78.852 17.7608C78.5955 17.5896 78.3958 17.3462 78.278 17.0616C78.1603 16.7771 78.1298 16.4641 78.1906 16.1623C78.2513 15.8605 78.4005 15.5835 78.6192 15.3663C78.838 15.1491 79.1164 15.0016 79.4192 14.9425C79.7221 14.8833 80.0357 14.9152 80.3204 15.034C80.6051 15.1528 80.848 15.3533 81.0183 15.61C81.1887 15.8667 81.2789 16.168 81.2774 16.4759C81.2754 16.887 81.1103 17.2805 80.8182 17.5705C80.5261 17.8605 80.1308 18.0233 79.7187 18.0233Z" fill="#9B9B9B"/>
<path id="Vector_35" d="M79.7187 31.3851C79.4104 31.3851 79.1091 31.2939 78.8528 31.1231C78.5965 30.9522 78.3967 30.7094 78.2787 30.4252C78.1607 30.1411 78.1299 29.8285 78.19 29.5268C78.2502 29.2252 78.3986 28.9482 78.6166 28.7307C78.8346 28.5132 79.1123 28.3651 79.4146 28.3051C79.717 28.2451 80.0304 28.2759 80.3152 28.3936C80.6 28.5113 80.8434 28.7106 81.0147 28.9663C81.186 29.222 81.2774 29.5227 81.2774 29.8302C81.2774 30.0344 81.2371 30.2366 81.1587 30.4252C81.0804 30.6139 80.9656 30.7853 80.8209 30.9297C80.6761 31.0741 80.5043 31.1886 80.3152 31.2667C80.1261 31.3449 79.9234 31.3851 79.7187 31.3851Z" fill="#9B9B9B"/>
<path id="Vector_36" d="M79.7187 44.7471C79.4092 44.747 79.1067 44.655 78.8497 44.4828C78.5928 44.3106 78.3931 44.066 78.2761 43.7801C78.159 43.4942 78.13 43.1801 78.1926 42.8777C78.2552 42.5753 78.4066 42.2983 78.6276 42.0821C78.8485 41.8659 79.1291 41.7202 79.4333 41.6636C79.7376 41.607 80.0519 41.642 80.3362 41.7643C80.6204 41.8866 80.8617 42.0905 81.0293 42.3501C81.1969 42.6097 81.2833 42.9132 81.2774 43.2219C81.2677 43.6285 81.0994 44.0153 80.8084 44.3001C80.5173 44.5849 80.1264 44.7452 79.7187 44.7471Z" fill="#9B9B9B"/>
<path id="Vector_37" d="M79.7187 57.7369C79.4104 57.7369 79.1091 57.6457 78.8528 57.4749C78.5965 57.304 78.3967 57.0612 78.2787 56.7771C78.1607 56.4929 78.1299 56.1803 78.19 55.8787C78.2502 55.5771 78.3986 55.3 78.6166 55.0825C78.8346 54.8651 79.1123 54.717 79.4146 54.657C79.717 54.597 80.0304 54.6278 80.3152 54.7455C80.6 54.8632 80.8434 55.0625 81.0147 55.3182C81.186 55.5739 81.2774 55.8745 81.2774 56.182C81.2774 56.5944 81.1132 56.9899 80.8209 57.2815C80.5286 57.5731 80.1321 57.7369 79.7187 57.7369Z" fill="#9B9B9B"/>
<path id="Vector_38" d="M79.7187 71.0988C79.4104 71.0988 79.1091 71.0076 78.8528 70.8368C78.5965 70.6659 78.3967 70.4231 78.2787 70.1389C78.1607 69.8548 78.1299 69.5422 78.19 69.2405C78.2502 68.9389 78.3986 68.6619 78.6166 68.4444C78.8346 68.2269 79.1123 68.0788 79.4146 68.0189C79.717 67.9589 80.0304 67.9896 80.3152 68.1073C80.6 68.225 80.8434 68.4243 81.0147 68.68C81.186 68.9357 81.2774 69.2364 81.2774 69.5439C81.2754 69.9557 81.1106 70.35 80.8187 70.6412C80.5268 70.9324 80.1315 71.0969 79.7187 71.0988Z" fill="#9B9B9B"/>
<path id="Vector_39" d="M79.7187 84.4607C79.4104 84.4607 79.1091 84.3695 78.8528 84.1986C78.5965 84.0278 78.3967 83.7849 78.2787 83.5008C78.1607 83.2167 78.1299 82.904 78.19 82.6024C78.2502 82.3008 78.3986 82.0237 78.6166 81.8063C78.8346 81.5888 79.1123 81.4407 79.4146 81.3807C79.717 81.3207 80.0304 81.3515 80.3152 81.4692C80.6 81.5869 80.8434 81.7862 81.0147 82.0419C81.186 82.2976 81.2774 82.5982 81.2774 82.9058C81.2754 83.3175 81.1106 83.7119 80.8187 84.0031C80.5268 84.2943 80.1315 84.4587 79.7187 84.4607Z" fill="#9B9B9B"/>
<path id="Vector_40" d="M79.7187 97.8151C79.4104 97.8151 79.1091 97.7239 78.8528 97.553C78.5965 97.3822 78.3967 97.1393 78.2787 96.8552C78.1607 96.5711 78.1299 96.2585 78.19 95.9568C78.2502 95.6552 78.3986 95.3781 78.6166 95.1607C78.8346 94.9432 79.1123 94.7951 79.4146 94.7351C79.717 94.6751 80.0304 94.7059 80.3152 94.8236C80.6 94.9413 80.8434 95.1406 81.0147 95.3963C81.186 95.652 81.2774 95.9526 81.2774 96.2602C81.2774 96.6726 81.1132 97.0681 80.8209 97.3597C80.5286 97.6513 80.1321 97.8151 79.7187 97.8151Z" fill="#9B9B9B"/>
<path id="Vector_41" d="M64.0576 4.66891C63.7493 4.66891 63.4479 4.57772 63.1916 4.40686C62.9353 4.23601 62.7355 3.99316 62.6175 3.70904C62.4996 3.42491 62.4687 3.11227 62.5288 2.81065C62.589 2.50902 62.7374 2.23196 62.9554 2.0145C63.1734 1.79705 63.4511 1.64896 63.7535 1.58896C64.0558 1.52896 64.3692 1.55976 64.654 1.67744C64.9388 1.79513 65.1823 1.99443 65.3535 2.25013C65.5248 2.50584 65.6162 2.80646 65.6162 3.114C65.6143 3.52578 65.4494 3.92015 65.1575 4.21133C64.8656 4.50251 64.4703 4.66696 64.0576 4.66891Z" fill="#9B9B9B"/>
<path id="Vector_42" d="M64.0576 18.0233C63.749 18.0233 63.4473 17.9318 63.1908 17.7608C62.9344 17.5896 62.7346 17.3462 62.6168 17.0616C62.4991 16.7771 62.4687 16.4641 62.5294 16.1623C62.5902 15.8605 62.7394 15.5835 62.9581 15.3663C63.1768 15.1491 63.4552 15.0016 63.7581 14.9425C64.0609 14.8833 64.3745 14.9152 64.6592 15.034C64.9439 15.1528 65.1868 15.3533 65.3572 15.61C65.5275 15.8667 65.6177 16.168 65.6162 16.4759C65.6142 16.887 65.4492 17.2805 65.1571 17.5705C64.865 17.8605 64.4696 18.0233 64.0576 18.0233Z" fill="#9B9B9B"/>
<path id="Vector_43" d="M64.0576 31.3851C63.7493 31.3851 63.4479 31.2939 63.1916 31.1231C62.9353 30.9522 62.7355 30.7094 62.6175 30.4252C62.4996 30.1411 62.4687 29.8285 62.5288 29.5268C62.589 29.2252 62.7374 28.9482 62.9554 28.7307C63.1734 28.5132 63.4511 28.3651 63.7535 28.3051C64.0558 28.2451 64.3692 28.2759 64.654 28.3936C64.9388 28.5113 65.1823 28.7106 65.3535 28.9663C65.5248 29.222 65.6162 29.5227 65.6162 29.8302C65.6162 30.0344 65.5759 30.2366 65.4976 30.4252C65.4192 30.6139 65.3044 30.7853 65.1597 30.9297C65.015 31.0741 64.8431 31.1886 64.654 31.2667C64.4649 31.3449 64.2622 31.3851 64.0576 31.3851Z" fill="#9B9B9B"/>
<path id="Vector_44" d="M64.0576 44.7471C63.748 44.747 63.4455 44.655 63.1886 44.4828C62.9317 44.3106 62.732 44.066 62.6149 43.7801C62.4979 43.4942 62.4688 43.1801 62.5314 42.8777C62.594 42.5753 62.7454 42.2983 62.9664 42.0821C63.1874 41.8659 63.4679 41.7202 63.7722 41.6636C64.0765 41.607 64.3908 41.642 64.675 41.7643C64.9592 41.8866 65.2005 42.0905 65.3682 42.3501C65.5358 42.6097 65.6221 42.9132 65.6162 43.2219C65.6065 43.6285 65.4382 44.0153 65.1472 44.3001C64.8561 44.5849 64.4652 44.7452 64.0576 44.7471Z" fill="#9B9B9B"/>
<path id="Vector_45" d="M64.0576 57.7369C63.7493 57.7369 63.4479 57.6457 63.1916 57.4749C62.9353 57.304 62.7355 57.0612 62.6175 56.7771C62.4996 56.4929 62.4687 56.1803 62.5288 55.8787C62.589 55.5771 62.7374 55.3 62.9554 55.0825C63.1734 54.8651 63.4511 54.717 63.7535 54.657C64.0558 54.597 64.3692 54.6278 64.654 54.7455C64.9388 54.8632 65.1823 55.0625 65.3535 55.3182C65.5248 55.5739 65.6162 55.8745 65.6162 56.182C65.6162 56.5944 65.452 56.9899 65.1597 57.2815C64.8674 57.5731 64.4709 57.7369 64.0576 57.7369Z" fill="#9B9B9B"/>
<path id="Vector_46" d="M64.0576 71.0988C63.7493 71.0988 63.4479 71.0076 63.1916 70.8368C62.9353 70.6659 62.7355 70.4231 62.6175 70.1389C62.4996 69.8548 62.4687 69.5422 62.5288 69.2405C62.589 68.9389 62.7374 68.6619 62.9554 68.4444C63.1734 68.2269 63.4511 68.0788 63.7535 68.0189C64.0558 67.9589 64.3692 67.9896 64.654 68.1073C64.9388 68.225 65.1823 68.4243 65.3535 68.68C65.5248 68.9357 65.6162 69.2364 65.6162 69.5439C65.6143 69.9557 65.4494 70.35 65.1575 70.6412C64.8656 70.9324 64.4703 71.0969 64.0576 71.0988Z" fill="#9B9B9B"/>
<path id="Vector_47" d="M64.0576 84.4607C63.7493 84.4607 63.4479 84.3695 63.1916 84.1986C62.9353 84.0278 62.7355 83.7849 62.6175 83.5008C62.4996 83.2167 62.4687 82.904 62.5288 82.6024C62.589 82.3008 62.7374 82.0237 62.9554 81.8063C63.1734 81.5888 63.4511 81.4407 63.7535 81.3807C64.0558 81.3207 64.3692 81.3515 64.654 81.4692C64.9388 81.5869 65.1823 81.7862 65.3535 82.0419C65.5248 82.2976 65.6162 82.5982 65.6162 82.9058C65.6143 83.3175 65.4494 83.7119 65.1575 84.0031C64.8656 84.2943 64.4703 84.4587 64.0576 84.4607Z" fill="#9B9B9B"/>
<path id="Vector_48" d="M64.0576 97.8151C63.7493 97.8151 63.4479 97.7239 63.1916 97.553C62.9353 97.3822 62.7355 97.1393 62.6175 96.8552C62.4996 96.5711 62.4687 96.2585 62.5288 95.9568C62.589 95.6552 62.7374 95.3781 62.9554 95.1607C63.1734 94.9432 63.4511 94.7951 63.7535 94.7351C64.0558 94.6751 64.3692 94.7059 64.654 94.8236C64.9388 94.9413 65.1823 95.1406 65.3535 95.3963C65.5248 95.652 65.6162 95.9526 65.6162 96.2602C65.6162 96.6726 65.452 97.0681 65.1597 97.3597C64.8674 97.6513 64.4709 97.8151 64.0576 97.8151Z" fill="#9B9B9B"/>
<path id="Vector_49" d="M111.041 3.92489C110.733 3.92489 110.431 3.8337 110.175 3.66284C109.919 3.49199 109.719 3.24914 109.601 2.96502C109.483 2.68089 109.452 2.36825 109.512 2.06663C109.572 1.76501 109.721 1.48795 109.939 1.27049C110.157 1.05303 110.435 0.904938 110.737 0.844941C111.039 0.784945 111.353 0.815737 111.638 0.933425C111.922 1.05111 112.166 1.25041 112.337 1.50612C112.508 1.76182 112.6 2.06244 112.6 2.36998C112.598 2.78176 112.433 3.17613 112.141 3.46731C111.849 3.75849 111.454 3.92294 111.041 3.92489Z" fill="#9B9B9B"/>
<path id="Vector_50" d="M111.041 17.2793C110.732 17.2793 110.431 17.1879 110.174 17.0167C109.918 16.8455 109.718 16.6022 109.6 16.3177C109.483 16.0331 109.452 15.7201 109.513 15.4182C109.574 15.1164 109.723 14.8394 109.942 14.6222C110.16 14.4051 110.439 14.2576 110.742 14.1984C111.044 14.1392 111.358 14.1711 111.643 14.2899C111.927 14.4088 112.17 14.6092 112.341 14.8659C112.511 15.1226 112.601 15.4239 112.6 15.7318C112.598 16.1429 112.433 16.5365 112.141 16.8265C111.848 17.1165 111.453 17.2793 111.041 17.2793Z" fill="#9B9B9B"/>
<path id="Vector_51" d="M111.041 30.6411C110.733 30.6411 110.431 30.5499 110.175 30.3791C109.919 30.2082 109.719 29.9654 109.601 29.6812C109.483 29.3971 109.452 29.0845 109.512 28.7829C109.572 28.4812 109.721 28.2042 109.939 27.9867C110.157 27.7693 110.435 27.6213 110.737 27.5613C111.039 27.5013 111.353 27.532 111.638 27.6497C111.922 27.7673 112.166 27.9667 112.337 28.2224C112.508 28.4781 112.6 28.7787 112.6 29.0862C112.6 29.2904 112.559 29.4926 112.481 29.6812C112.403 29.8699 112.288 30.0414 112.143 30.1858C111.998 30.3302 111.827 30.4446 111.638 30.5228C111.448 30.6009 111.246 30.6411 111.041 30.6411Z" fill="#9B9B9B"/>
<path id="Vector_52" d="M111.041 44.003C110.732 44.0029 110.429 43.9109 110.172 43.7387C109.915 43.5665 109.715 43.3219 109.598 43.036C109.481 42.7502 109.452 42.436 109.515 42.1336C109.577 41.8312 109.729 41.5542 109.95 41.338C110.171 41.1218 110.451 40.9761 110.756 40.9195C111.06 40.8629 111.374 40.898 111.658 41.0202C111.943 41.1425 112.184 41.3464 112.352 41.606C112.519 41.8656 112.606 42.1691 112.6 42.4778C112.59 42.8844 112.422 43.2712 112.131 43.556C111.84 43.8408 111.449 44.0012 111.041 44.003Z" fill="#9B9B9B"/>
<path id="Vector_53" d="M111.041 56.9929C110.733 56.9929 110.431 56.9017 110.175 56.7308C109.919 56.56 109.719 56.3171 109.601 56.033C109.483 55.7489 109.452 55.4362 109.512 55.1346C109.572 54.833 109.721 54.5559 109.939 54.3385C110.157 54.121 110.435 53.9729 110.737 53.9129C111.039 53.8529 111.353 53.8837 111.638 54.0014C111.922 54.1191 112.166 54.3184 112.337 54.5741C112.508 54.8298 112.6 55.1304 112.6 55.4379C112.6 55.8503 112.435 56.2458 112.143 56.5374C111.851 56.829 111.454 56.9929 111.041 56.9929Z" fill="#9B9B9B"/>
<path id="Vector_54" d="M111.041 70.3548C110.733 70.3548 110.431 70.2636 110.175 70.0928C109.919 69.9219 109.719 69.6791 109.601 69.3949C109.483 69.1108 109.452 68.7982 109.512 68.4966C109.572 68.1949 109.721 67.9179 109.939 67.7004C110.157 67.483 110.435 67.3349 110.737 67.2749C111.039 67.2149 111.353 67.2457 111.638 67.3634C111.922 67.481 112.166 67.6803 112.337 67.936C112.508 68.1917 112.6 68.4924 112.6 68.7999C112.598 69.2117 112.433 69.6061 112.141 69.8972C111.849 70.1884 111.454 70.3529 111.041 70.3548Z" fill="#9B9B9B"/>
<path id="Vector_55" d="M111.041 83.7167C110.733 83.7167 110.431 83.6255 110.175 83.4546C109.919 83.2838 109.719 83.0409 109.601 82.7568C109.483 82.4727 109.452 82.16 109.512 81.8584C109.572 81.5568 109.721 81.2797 109.939 81.0623C110.157 80.8448 110.435 80.6967 110.737 80.6367C111.039 80.5767 111.353 80.6075 111.638 80.7252C111.922 80.8429 112.166 81.0422 112.337 81.2979C112.508 81.5536 112.6 81.8542 112.6 82.1618C112.598 82.5736 112.433 82.9679 112.141 83.2591C111.849 83.5503 111.454 83.7147 111.041 83.7167Z" fill="#9B9B9B"/>
<path id="Vector_56" d="M111.041 97.0711C110.733 97.0711 110.431 96.9799 110.175 96.8091C109.919 96.6382 109.719 96.3954 109.601 96.1112C109.483 95.8271 109.452 95.5145 109.512 95.2129C109.572 94.9112 109.721 94.6342 109.939 94.4167C110.157 94.1992 110.435 94.0512 110.737 93.9912C111.039 93.9312 111.353 93.962 111.638 94.0796C111.922 94.1973 112.166 94.3966 112.337 94.6523C112.508 94.908 112.6 95.2087 112.6 95.5162C112.6 95.9286 112.435 96.3241 112.143 96.6157C111.851 96.9073 111.454 97.0711 111.041 97.0711Z" fill="#9B9B9B"/>
<path id="Vector_57" d="M95.3799 3.92489C95.0716 3.92489 94.7703 3.8337 94.5139 3.66284C94.2576 3.49199 94.0578 3.24914 93.9399 2.96502C93.8219 2.68089 93.791 2.36825 93.8512 2.06663C93.9113 1.76501 94.0598 1.48795 94.2777 1.27049C94.4957 1.05303 94.7735 0.904938 95.0758 0.844941C95.3782 0.784945 95.6916 0.815737 95.9764 0.933425C96.2612 1.05111 96.5046 1.25041 96.6759 1.50612C96.8471 1.76182 96.9385 2.06244 96.9385 2.36998C96.9366 2.78176 96.7717 3.17613 96.4799 3.46731C96.188 3.75849 95.7927 3.92294 95.3799 3.92489Z" fill="#9B9B9B"/>
<path id="Vector_58" d="M95.3799 17.2793C95.0713 17.2793 94.7696 17.1879 94.5132 17.0167C94.2567 16.8455 94.0569 16.6022 93.9392 16.3177C93.8214 16.0331 93.791 15.7201 93.8517 15.4182C93.9125 15.1164 94.0617 14.8394 94.2804 14.6222C94.4991 14.4051 94.7776 14.2576 95.0804 14.1984C95.3832 14.1392 95.6969 14.1711 95.9815 14.2899C96.2662 14.4088 96.5091 14.6092 96.6795 14.8659C96.8499 15.1226 96.94 15.4239 96.9385 15.7318C96.9366 16.1429 96.7715 16.5365 96.4794 16.8265C96.1873 17.1165 95.792 17.2793 95.3799 17.2793Z" fill="#9B9B9B"/>
<path id="Vector_59" d="M95.3799 30.6411C95.0716 30.6411 94.7703 30.5499 94.5139 30.3791C94.2576 30.2082 94.0578 29.9654 93.9399 29.6812C93.8219 29.3971 93.791 29.0845 93.8512 28.7829C93.9113 28.4812 94.0598 28.2042 94.2777 27.9867C94.4957 27.7693 94.7735 27.6213 95.0758 27.5613C95.3782 27.5013 95.6916 27.532 95.9764 27.6497C96.2612 27.7673 96.5046 27.9667 96.6759 28.2224C96.8471 28.4781 96.9385 28.7787 96.9385 29.0862C96.9385 29.2904 96.8982 29.4926 96.8199 29.6812C96.7416 29.8699 96.6268 30.0414 96.482 30.1858C96.3373 30.3302 96.1655 30.4446 95.9764 30.5228C95.7872 30.6009 95.5846 30.6411 95.3799 30.6411Z" fill="#9B9B9B"/>
<path id="Vector_60" d="M95.3799 44.003C95.0704 44.0029 94.7678 43.9109 94.5109 43.7387C94.254 43.5665 94.0543 43.3219 93.9372 43.036C93.8202 42.7502 93.7911 42.436 93.8537 42.1336C93.9163 41.8312 94.0678 41.5542 94.2887 41.338C94.5097 41.1218 94.7902 40.9761 95.0945 40.9195C95.3988 40.8629 95.7131 40.898 95.9973 41.0202C96.2815 41.1425 96.5229 41.3464 96.6905 41.606C96.8581 41.8656 96.9445 42.1691 96.9385 42.4778C96.9288 42.8844 96.7606 43.2712 96.4695 43.556C96.1785 43.8408 95.7876 44.0012 95.3799 44.003Z" fill="#9B9B9B"/>
<path id="Vector_61" d="M95.3799 56.9929C95.0716 56.9929 94.7703 56.9017 94.5139 56.7308C94.2576 56.56 94.0578 56.3171 93.9399 56.033C93.8219 55.7489 93.791 55.4362 93.8512 55.1346C93.9113 54.833 94.0598 54.5559 94.2777 54.3385C94.4957 54.121 94.7735 53.9729 95.0758 53.9129C95.3782 53.8529 95.6916 53.8837 95.9764 54.0014C96.2612 54.1191 96.5046 54.3184 96.6759 54.5741C96.8471 54.8298 96.9385 55.1304 96.9385 55.4379C96.9385 55.8503 96.7743 56.2458 96.482 56.5374C96.1897 56.829 95.7933 56.9929 95.3799 56.9929Z" fill="#9B9B9B"/>
<path id="Vector_62" d="M95.3799 70.3548C95.0716 70.3548 94.7703 70.2636 94.5139 70.0928C94.2576 69.9219 94.0578 69.6791 93.9399 69.3949C93.8219 69.1108 93.791 68.7982 93.8512 68.4966C93.9113 68.1949 94.0598 67.9179 94.2777 67.7004C94.4957 67.483 94.7735 67.3349 95.0758 67.2749C95.3782 67.2149 95.6916 67.2457 95.9764 67.3634C96.2612 67.481 96.5046 67.6803 96.6759 67.936C96.8471 68.1917 96.9385 68.4924 96.9385 68.7999C96.9366 69.2117 96.7717 69.6061 96.4799 69.8972C96.188 70.1884 95.7927 70.3529 95.3799 70.3548Z" fill="#9B9B9B"/>
<path id="Vector_63" d="M95.3799 83.7167C95.0716 83.7167 94.7703 83.6255 94.5139 83.4546C94.2576 83.2838 94.0578 83.0409 93.9399 82.7568C93.8219 82.4727 93.791 82.16 93.8512 81.8584C93.9113 81.5568 94.0598 81.2797 94.2777 81.0623C94.4957 80.8448 94.7735 80.6967 95.0758 80.6367C95.3782 80.5767 95.6916 80.6075 95.9764 80.7252C96.2612 80.8429 96.5046 81.0422 96.6759 81.2979C96.8471 81.5536 96.9385 81.8542 96.9385 82.1618C96.9366 82.5736 96.7717 82.9679 96.4799 83.2591C96.188 83.5503 95.7927 83.7147 95.3799 83.7167Z" fill="#9B9B9B"/>
<path id="Vector_64" d="M95.3799 97.0711C95.0716 97.0711 94.7703 96.9799 94.5139 96.8091C94.2576 96.6382 94.0578 96.3954 93.9399 96.1112C93.8219 95.8271 93.791 95.5145 93.8512 95.2129C93.9113 94.9112 94.0598 94.6342 94.2777 94.4167C94.4957 94.1992 94.7735 94.0512 95.0758 93.9912C95.3782 93.9312 95.6916 93.962 95.9764 94.0796C96.2612 94.1973 96.5046 94.3966 96.6759 94.6523C96.8471 94.908 96.9385 95.2087 96.9385 95.5162C96.9385 95.9286 96.7743 96.3241 96.482 96.6157C96.1897 96.9073 95.7933 97.0711 95.3799 97.0711Z" fill="#9B9B9B"/>
</g>
<defs>
<clipPath id="clip0_2_67">
<rect width="112" height="97" fill="white" transform="translate(0.599976 0.815063)"/>
</clipPath>
</defs>
</svg>
