<svg width="65" height="36" viewBox="0 0 65 36" fill="none" xmlns="http://www.w3.org/2000/svg">
<path id="Vector" d="M6.63336 28.7328C6.63324 28.7691 6.63324 28.7691 6.63336 28.7328V28.7328ZM0.730271 23.8607C0.535457 24.2589 0.456717 24.6574 0.764877 25.0568C0.686996 25.2016 0.60924 25.3102 0.492671 25.4548C0.298229 25.7443 0.335934 26.0344 0.451008 26.3246C0.489456 26.3972 0.643839 26.5063 0.682659 26.4702C1.03125 26.3624 1.49504 26.5085 1.72843 26.1467C1.84438 26.1832 1.92163 26.2197 2.03758 26.2562C1.76538 26.6542 1.26141 26.9429 1.453 27.4871C1.68502 27.5239 1.87836 27.5607 2.07181 27.5612C2.18714 27.7789 2.22521 27.9602 2.10852 28.1412C2.10827 28.2137 2.06921 28.3223 2.10778 28.3586C2.26192 28.5403 2.45475 28.722 2.64771 28.8675C2.76354 28.9403 2.95662 29.0495 3.07282 29.0136C4.00165 28.9435 4.96929 28.8372 5.89811 28.7671C6.13038 28.7315 6.36253 28.7321 6.59467 28.7327C6.55685 28.4789 6.75043 28.4431 6.94389 28.4436C6.98257 28.4437 7.02089 28.5526 7.0979 28.6615C6.94301 28.6974 6.78812 28.7332 6.59455 28.769C6.74944 28.7331 6.94301 28.6974 7.0979 28.6615L7.9491 28.6637C7.75527 28.772 7.67777 28.808 7.56157 28.8439C7.63883 28.8804 7.71609 28.9168 7.79334 28.9533C7.7146 29.3518 7.59704 29.7864 7.94414 30.1135C7.63337 30.4752 7.55475 30.8374 7.74684 31.2366C8.32733 31.2019 8.71424 31.2029 8.9847 31.3123C8.94576 31.3847 8.90683 31.4571 8.86789 31.5295C8.82883 31.6381 8.7512 31.7104 8.71213 31.819C8.59519 32.0724 8.67208 32.2176 8.98148 32.2547C9.02017 32.2548 9.05886 32.2549 9.13625 32.2551C9.36839 32.2557 9.4454 32.3646 9.40597 32.582C9.3669 32.6906 9.32772 32.8355 9.40498 32.8719C9.55912 33.0536 9.75183 33.2715 9.9836 33.3809C10.1767 33.4901 10.4088 33.4907 10.6411 33.4551C11.4926 33.3485 12.3056 33.2057 13.1573 33.0629C13.5832 32.9915 14.0093 32.8476 14.434 33.1024C14.4344 32.9937 14.4733 32.9213 14.4735 32.8851C14.6672 32.8131 14.8994 32.7774 15.0931 32.7054C15.7904 32.4535 16.4877 32.2016 17.1852 31.9135C18.2699 31.5176 19.3547 31.0854 20.4395 30.6533C20.7494 30.5454 21.0983 30.365 21.3697 30.1845C21.68 29.9679 22.0285 29.8963 22.4542 29.8611C22.4151 29.9698 22.4149 30.0422 22.3761 30.0784C22.2205 30.2955 21.9877 30.5123 21.8707 30.7657C21.7537 31.0554 21.7525 31.3816 21.7127 31.7077C21.673 31.9976 21.5947 32.2873 21.555 32.5772C21.5158 32.7221 21.5152 32.9033 21.5147 33.0483C21.7853 33.1215 22.0173 33.1583 22.3266 33.2316C22.326 33.4128 22.3253 33.594 22.286 33.7752C22.2466 33.9925 22.3235 34.1377 22.5167 34.2107C22.7873 34.2839 22.7867 34.4651 22.7472 34.6825C22.7472 34.6825 22.7473 34.6462 22.786 34.6463C22.8635 34.6103 22.941 34.5743 22.9799 34.5381C22.9797 34.5744 22.9796 34.6106 22.9795 34.6469C22.9021 34.6467 22.8247 34.6464 22.7472 34.6825C22.7858 34.7188 22.863 34.7553 22.8628 34.8278C23.0153 35.4806 23.5181 35.5544 24.0597 35.5558C24.7563 35.5213 25.4529 35.4869 26.1494 35.4525C26.7686 35.4178 27.3886 35.1295 28.0461 35.2036C28.1622 35.2039 28.2785 35.1318 28.3947 35.0958C28.3948 35.0596 28.3948 35.0596 28.395 35.0233L28.0854 35.0225C28.0856 34.9863 28.0856 34.9863 28.0857 34.95C28.3955 34.8783 28.744 34.7705 29.0538 34.6988C28.8986 34.8434 28.7051 34.8429 28.627 35.0602C28.7432 35.0242 28.8206 35.0244 28.8981 34.9884C29.4791 34.8087 30.0602 34.5927 30.6024 34.4129C31.0285 34.269 31.4548 34.0889 31.8424 33.8724C32.5789 33.4756 33.431 33.2241 34.129 32.7547C34.3228 32.6465 34.4772 32.7556 34.4765 32.9731C34.4761 33.0818 34.4371 33.1905 34.398 33.2991L34.4367 33.2992C34.5147 33.1182 34.5926 32.9734 34.7093 32.7925C34.7864 32.8652 34.8635 32.9378 34.9407 33.0105C35.0959 32.866 35.2513 32.6851 35.3679 32.5405C35.4062 32.6493 35.4444 32.7944 35.4056 32.8305C35.2117 32.9387 35.3267 33.2653 35.0557 33.3008C35.0551 33.482 35.0931 33.6996 35.0923 33.9171C35.2475 33.8087 35.3639 33.7003 35.5192 33.5557C35.5565 33.9545 35.3624 34.1352 35.2072 34.2798C35.2838 34.4975 35.3991 34.7152 35.4372 34.8966C35.4744 35.3316 35.513 35.368 35.9386 35.3691C36.0546 35.3694 36.1708 35.3334 36.3256 35.3338C36.4417 35.3341 36.5966 35.2983 36.6737 35.371C36.944 35.5166 37.215 35.4811 37.5248 35.4094C37.6798 35.3373 37.8348 35.2652 37.9897 35.2294C38.2221 35.1575 38.4542 35.1581 38.647 35.3398C38.6856 35.3762 38.8405 35.3403 38.9564 35.3769C38.9183 35.2318 38.8798 35.1592 38.8414 35.0866C39.4228 34.7619 39.4228 34.7619 39.7698 35.1253C39.8473 35.0892 39.9248 35.0532 40.0023 35.0171C39.8482 34.8355 40.0031 34.7997 40.158 34.7638C40.3902 34.7282 40.5843 34.5474 40.8158 34.7293C40.8544 34.7656 40.9707 34.6934 41.0095 34.6573C41.2422 34.5129 41.4748 34.3685 41.7075 34.2241C41.8238 34.152 41.9402 34.0435 42.1336 34.0803C42.2108 34.1167 42.3271 34.0445 42.4046 34.0085C42.8697 33.7922 43.296 33.5758 43.761 33.3596C44.1486 33.1794 44.5745 33.0717 44.9236 32.8189C45.4667 32.4216 46.0481 32.0969 46.6296 31.7722C47.056 31.5558 47.4824 31.3032 47.9089 31.0506C47.9477 31.0145 47.9864 31.0146 48.0638 31.0148C48.1412 31.015 48.7219 30.9077 48.7995 30.8355C48.9935 30.691 49.3417 30.6919 49.3428 30.3657C49.6134 30.4389 49.5756 30.185 49.6533 30.0765C49.8857 30.0046 50.1566 30.0053 50.3117 29.897C50.7383 29.6081 51.1263 29.2829 51.5145 28.9215C51.786 28.7047 51.9805 28.4153 52.2136 28.1259C52.369 27.9451 52.5243 27.8005 52.7181 27.6923C52.8732 27.5839 53.0282 27.5118 53.1834 27.4035C53.3773 27.259 53.5714 27.0783 53.7653 26.9338C54.0755 26.7534 54.3471 26.5366 54.3484 26.1379C54.6194 26.1024 54.8517 26.0668 54.7751 25.8128C55.0079 25.6322 55.1633 25.4514 55.3572 25.3069C55.4736 25.2347 55.5899 25.1625 55.6676 25.054C55.7841 24.9456 56.0166 24.8374 56.017 24.7287C56.0181 24.4025 56.3281 24.2583 56.5223 24.0413C56.9882 23.5714 57.4926 23.174 57.9198 22.7039C58.5797 22.0532 59.2398 21.3662 59.8999 20.6793C60.4045 20.2094 60.909 19.7758 61.4136 19.3059C61.957 18.7999 62.4618 18.2575 63.0054 17.7152C63.7037 17.1733 64.3635 16.5589 64.9847 15.9443C64.8696 15.6541 64.7931 15.4001 64.755 15.2188C64.5619 15.1096 64.3686 15.0728 64.369 14.9641C64.3695 14.8191 64.486 14.6744 64.5251 14.5658C64.2161 14.42 63.9456 14.3106 63.6364 14.2011C63.5589 14.2371 63.4039 14.3092 63.2489 14.3813C63.2115 14.0187 63.5597 14.0196 63.7538 13.8389C63.5219 13.7658 63.2896 13.8015 63.1352 13.6923C62.9808 13.5832 62.8655 13.3654 62.7498 13.2564C62.44 13.3281 62.1689 13.3999 61.8978 13.4717C61.7429 13.5075 61.5877 13.6521 61.4337 13.4342C61.4338 13.398 61.2789 13.4338 61.1627 13.4697C61.0853 13.4695 61.0078 13.5056 60.9304 13.5054C60.8926 13.2516 61.3183 13.2164 61.2033 12.9262C61.0869 12.9984 60.9705 13.1068 60.854 13.2152C60.8156 13.1426 60.7772 13.0701 60.816 13.0339C60.9332 12.708 61.0117 12.382 61.1675 12.0562C61.2064 12.0201 61.3226 11.9841 61.3614 11.948C61.3232 11.8029 61.3237 11.6579 61.2853 11.5491C61.2858 11.4041 61.2086 11.3676 61.0537 11.4035C60.9763 11.4033 60.8988 11.4393 60.8988 11.4393C60.745 11.149 60.591 10.9311 60.4756 10.7496C60.5925 10.4962 60.6706 10.2789 60.7488 10.0616C60.44 9.84338 60.1699 9.6252 59.8998 9.40703C59.8224 9.40683 59.7062 9.44278 59.59 9.47872C59.5903 9.40623 59.5905 9.33374 59.5908 9.26125C59.7474 8.71798 59.6327 8.31899 59.0532 8.06377C58.9759 8.02732 58.8217 7.88194 58.8605 7.8458C58.9774 7.59238 58.7455 7.51929 58.6299 7.37401C58.2448 6.86558 57.5488 6.7188 57.006 7.0436C56.8897 7.11579 56.7349 7.11539 56.6189 7.11509C56.5024 7.22353 56.3857 7.40445 56.2306 7.51278C56.0755 7.62112 55.8433 7.62052 55.7664 7.47534C55.6898 7.25767 55.4965 7.22092 55.342 7.14803C55.5753 6.78618 56.0001 7.041 56.1941 6.86027C56.1561 6.67895 56.1179 6.53387 56.0796 6.42504C55.9632 6.49723 55.8856 6.56952 55.7694 6.60546C54.878 7.03809 54.0638 7.54342 53.3266 8.15768C51.852 9.42244 50.416 10.7235 48.9799 12.0246C48.9023 12.0969 48.8248 12.133 48.7472 12.2053C48.7086 12.1689 48.7086 12.1689 48.67 12.1326C48.7478 12.024 48.8257 11.8793 48.9034 11.7707C49.5254 10.9025 50.186 10.0705 50.7694 9.20217C51.1583 8.62325 51.5085 8.04424 51.8588 7.42897C52.0144 7.17566 52.1315 6.886 52.0939 6.5597C51.9394 6.48681 51.8237 6.37777 51.6306 6.26854C51.7855 6.23269 51.863 6.19665 52.018 6.12456C51.6703 5.97868 51.4771 5.90569 51.2453 5.79635L51.2468 5.36141C51.1307 5.36111 51.0147 5.36081 50.8986 5.36051C51.0156 5.07085 51.0156 5.07085 51.6349 4.99996C51.3645 4.89053 51.21 4.81764 51.0168 4.74465C51.2112 4.45519 50.9796 4.30961 50.7091 4.20018C50.516 4.09094 50.3229 3.9817 50.1685 3.87257C50.0135 3.94466 49.8585 4.01675 49.6648 4.08873C49.6659 3.76253 49.6668 3.50881 49.6677 3.2551C49.6688 2.9289 49.4761 2.71093 49.206 2.49276C49.0903 2.38372 48.8969 2.34698 48.7037 2.27399C48.7428 2.16535 48.7819 2.05672 48.8209 1.94808C48.7049 1.94778 48.5888 1.94748 48.4726 1.98342C48.2426 1.36666 48.204 1.33031 47.5461 1.36486C47.5074 1.36476 47.43 1.36456 47.4302 1.32831C47.3147 1.14679 47.1984 1.21898 47.0434 1.29107C46.7721 1.43535 46.5394 1.57972 46.268 1.76024C46.1909 1.65131 46.0751 1.57852 45.9981 1.46959C45.8438 1.3242 45.7283 1.17892 45.574 1.03354C45.3414 1.17792 45.109 1.24981 44.915 1.39429C42.9759 2.73034 41.2296 4.24812 39.4833 5.7659C38.707 6.4888 37.892 7.21159 37.1158 7.89824C37.0382 7.97053 36.922 8.00648 36.7669 8.11481C36.7289 7.89724 36.6907 7.75216 36.6912 7.60718C36.7308 7.35357 36.6152 7.20829 36.3833 7.1352C36.2674 7.09865 36.1905 6.95347 36.1132 6.91703C36.0737 7.17064 36.0737 7.17064 35.6869 7.13339C35.7658 6.69866 35.8059 6.26382 35.8849 5.79283C35.8075 5.79263 35.7302 5.79243 35.6527 5.82848C35.5752 5.86452 35.4975 5.93681 35.459 5.90046C35.0725 5.75448 34.8008 6.0075 34.4909 6.11543C34.3359 6.18752 34.2195 6.29595 34.0647 6.29555C34.1043 6.04194 34.1825 5.78842 34.1446 5.57086C34.1074 5.13582 34.1477 4.66473 34.0331 4.22949L34.0332 4.19325C34.0724 4.04837 34.1502 3.93984 34.1894 3.79496C33.7642 3.64887 33.4155 3.79295 33.1444 3.86474C32.9514 3.7555 32.7583 3.64627 32.5652 3.53703C32.7202 3.46494 32.8364 3.429 32.9139 3.39295C32.7598 3.21133 32.6056 3.02971 32.4514 2.88433C32.3742 2.81164 32.2197 2.73875 32.1036 2.73845C31.9489 2.73804 31.7552 2.81003 31.6002 2.88212C31.0964 3.09829 30.5926 3.3507 30.0887 3.60311C30.0125 3.27671 30.3231 2.95131 29.9371 2.69659C30.0921 2.6245 30.2471 2.55241 30.3634 2.48022C30.3635 2.44398 30.325 2.40763 30.325 2.40763C29.9374 2.58786 29.5502 2.69559 29.2012 2.91216C28.4647 3.30895 27.7281 3.74198 27.0303 4.13888C26.7977 4.28325 26.5658 4.21016 26.4499 4.13737C25.9869 3.77372 25.484 3.73617 24.8651 3.69833C24.9829 3.1912 24.7911 2.71951 24.9476 2.21249C25.1037 1.81419 24.9496 1.63257 24.4854 1.59512C24.3693 1.59482 24.2147 1.55818 24.0985 1.59412C23.9437 1.59372 23.8278 1.55717 23.7121 1.44814C23.4808 1.19382 23.2495 0.939505 23.0181 0.721437C22.941 0.648747 22.825 0.612199 22.709 0.611899C22.4767 0.647545 22.2445 0.646944 22.012 0.755076C21.7408 0.863109 21.4694 1.04364 21.1592 1.22406C21.2373 1.00679 21.2765 0.86191 21.3158 0.680783C20.9282 0.897252 20.8879 1.36834 20.5001 1.62105C20.5395 1.40368 20.6175 1.22265 20.6183 1.00518C20.6189 0.823961 20.5421 0.642537 20.4655 0.424865C20.6978 0.389219 20.93 0.353577 21.1236 0.317835C20.8532 0.2084 20.8532 0.2084 20.6206 0.316533C20.1944 0.496655 19.7683 0.640533 19.4192 0.893346C18.4886 1.5071 17.5576 2.19336 16.6268 2.84336C16.4717 2.95169 16.3164 3.09627 16.0837 3.2769C16.2772 3.24115 16.3546 3.24135 16.432 3.24155C16.5478 3.31434 16.6638 3.35089 16.8183 3.42378C16.7405 3.53231 16.6627 3.67709 16.5462 3.78553C16.2745 4.03854 15.8484 4.18242 15.7697 4.58091C15.7695 4.61716 15.7309 4.61706 15.6922 4.61696C14.9554 5.08624 14.2571 5.62811 13.6745 6.27901C13.5192 6.45984 13.4801 6.56847 13.5182 6.7498C14.2922 6.67931 14.4082 6.71585 14.6009 6.93382C14.4071 7.04206 14.0973 7.11375 13.9806 7.29467C13.8639 7.4756 13.7861 7.58413 13.5536 7.69226C13.3986 7.76435 13.3593 7.94548 13.4749 8.09076C13.5518 8.23594 13.7068 8.16385 13.8231 8.09166C13.9781 8.01957 14.0946 7.91114 14.2494 7.87529C14.2883 7.83915 14.4041 7.91194 14.4428 7.91204C14.4038 7.98443 14.4036 8.05692 14.3648 8.09306C14.2871 8.16535 14.1709 8.2013 14.0933 8.27359C14.0157 8.34588 13.8607 8.41796 13.8604 8.49045C13.8983 8.74427 13.7047 8.78001 13.5497 8.8521C13.4333 8.92429 13.317 8.99648 13.2007 9.06867C13.2775 9.25009 13.3157 9.39517 13.3539 9.54026C13.315 9.5764 13.2761 9.64879 13.276 9.68503C11.2185 11.6732 9.19995 13.6252 7.14252 15.6134C6.24978 16.4447 5.35704 17.276 4.50287 18.1437C4.11472 18.5051 3.76514 18.9029 3.56995 19.4099C3.49195 19.5909 3.37513 19.808 3.21987 19.9526C2.63753 20.531 2.01649 21.1094 1.43415 21.6878C1.08469 22.0493 0.735352 22.3746 0.501594 22.8452C0.423474 23.0625 0.384166 23.2436 0.577004 23.4253C0.925464 23.3537 0.886032 23.5711 0.730271 23.8607ZM21.8262 32.4692C21.9028 32.6868 21.9796 32.8682 22.0177 33.0496C21.6306 33.0848 21.5921 33.0485 21.8262 32.4692ZM62.5541 13.9083C62.5542 13.872 62.6704 13.8361 62.7092 13.8C62.7477 13.8726 62.8248 13.9452 62.8247 13.9815C62.7856 14.0901 62.7079 14.1987 62.6302 14.2709C62.5915 14.2708 62.553 14.2345 62.553 14.2345C62.5533 14.1258 62.515 14.0169 62.5541 13.9083ZM60.4402 9.77088C60.2847 9.98795 60.5935 10.2062 60.2835 10.3504C60.1681 10.1326 60.0527 9.95111 59.8987 9.73324C60.0921 9.73374 60.2081 9.77028 60.4402 9.77088ZM59.3615 8.42702C59.361 8.572 59.3992 8.71708 59.3988 8.82581C59.3601 8.82571 59.3213 8.86186 59.3213 8.86186C59.2442 8.78917 59.1283 8.71638 58.9739 8.60724C59.1289 8.53515 59.2065 8.49911 59.3615 8.42702ZM58.9723 9.07842C59.1265 9.26005 59.1645 9.44138 58.9707 9.54961C58.932 9.54951 58.8935 9.51316 58.8548 9.51306C58.8554 9.33184 58.9331 9.2233 58.9723 9.07842ZM57.5085 7.18988C57.7799 7.04561 58.1279 7.08275 58.3982 7.26468C58.2046 7.30042 58.011 7.33616 57.8173 7.40815C57.6236 7.48014 57.4299 7.55213 57.2748 7.66047C57.2362 7.62412 57.1976 7.58778 57.1591 7.55143C57.2755 7.443 57.3535 7.26197 57.5085 7.18988ZM54.1784 7.97866C54.2947 7.90647 54.411 7.83428 54.45 7.76189C54.6448 7.3637 55.0701 7.43729 55.4962 7.29341C55.2628 7.65526 55.2612 8.12644 54.6428 7.94361C54.5655 7.90717 54.4878 8.01571 54.4103 8.05175C53.9837 8.34061 53.557 8.66571 53.1691 8.95467C53.1305 8.91832 53.1305 8.91832 53.0919 8.88198C53.48 8.55677 53.8292 8.26771 54.1784 7.97866ZM50.2751 29.2807C50.2749 29.3532 50.2746 29.4257 50.2745 29.462C50.2352 29.6431 50.158 29.5704 49.9648 29.4974C50.0813 29.389 50.1588 29.3529 50.2751 29.2807ZM51.707 6.5587C51.9382 6.84926 51.8986 7.10287 51.4326 7.6091C51.5498 7.28319 51.6284 6.92095 51.707 6.5587ZM50.4767 4.27206C50.5541 4.27226 50.5924 4.3811 50.6697 4.41754C50.5922 4.45359 50.5144 4.56212 50.4757 4.56202C50.3598 4.52548 50.2826 4.45279 50.0894 4.3798C50.2831 4.30781 50.3606 4.27176 50.4767 4.27206ZM49.166 2.85511C49.3982 2.85571 49.3589 3.03683 49.3196 3.21795L48.9714 3.21705C48.856 2.99928 48.9339 2.85451 49.166 2.85511ZM48.9311 3.68814L48.9697 3.68824C48.9308 3.76063 48.9304 3.86936 48.8915 3.94175C48.8528 3.94165 48.8528 3.94165 48.8142 3.90531C48.853 3.86916 48.8921 3.76053 48.9311 3.68814ZM47.6229 1.54628C47.6223 1.72751 47.6605 1.87259 47.6215 1.94498C47.466 2.16204 47.2335 2.27018 46.8467 2.23293C47.1184 1.97992 47.3512 1.7993 47.6229 1.54628ZM45.2242 1.50383C45.4953 1.43204 45.7274 1.43264 45.9984 1.3971C45.9979 1.54208 46.0361 1.68716 46.0354 1.86838C45.9967 1.86828 45.9579 1.90442 45.9579 1.90442C45.9195 1.83183 45.8809 1.79549 45.8039 1.68656C45.7648 1.79519 45.7259 1.86758 45.687 1.93997C45.4163 1.90302 45.1457 1.82983 44.875 1.79289C44.9143 1.61176 45.0693 1.53967 45.2242 1.50383ZM45.029 2.01076C44.9898 2.15564 45.028 2.30071 44.9505 2.33676C44.834 2.44519 44.7176 2.55363 44.5627 2.58947C44.0203 2.80554 43.5935 3.16689 43.1666 3.52823C42.9727 3.67271 42.7788 3.78095 42.5849 3.92542C42.5463 3.88908 42.5464 3.85284 42.5079 3.81649C43.3225 3.20243 44.0213 2.51558 45.029 2.01076ZM41.1882 5.04541C41.4216 4.68356 41.7705 4.467 42.1582 4.25053C41.9248 4.61238 41.5756 4.90143 41.1879 5.1179C41.1879 5.1179 41.1494 5.08155 41.1882 5.04541ZM41.1491 5.15405C41.0714 5.26258 40.9937 5.33487 40.8383 5.51569C40.9554 5.22604 40.9554 5.22604 41.1491 5.15405ZM36.482 34.863C36.2879 35.0438 36.2879 35.0438 35.9396 35.0791C35.9397 35.0429 35.9011 35.0065 35.9012 34.9703C36.0948 34.9345 36.2497 34.8987 36.482 34.863ZM36.3439 7.35256C36.4207 7.53399 36.3428 7.67877 36.1879 7.71461C35.9943 7.75036 35.801 7.71361 35.7245 7.4597C35.9567 7.42405 36.1503 7.38831 36.3439 7.35256ZM33.2988 3.97388C33.454 3.86554 33.6477 3.79355 33.8024 3.79396C33.9959 3.79446 33.9953 3.97568 34.0335 4.12076C33.8394 4.30148 33.6071 4.33713 33.3752 4.26403C33.2594 4.19125 33.1826 4.00982 33.2988 3.97388ZM31.8046 33.6186C31.7658 33.6547 31.7271 33.6546 31.6884 33.6545C31.6497 33.6544 31.6111 33.6181 31.534 33.5454C31.6502 33.5094 31.6889 33.5095 31.7276 33.5096C31.7661 33.546 31.8046 33.6186 31.8046 33.6186ZM31.636 3.71585C31.6358 3.78834 31.6743 3.82469 31.6742 3.86093C31.5966 3.93322 31.4804 3.96917 31.4027 4.04146C31.3642 4.00511 31.3643 3.96887 31.3257 3.93252C31.4034 3.86023 31.5197 3.78804 31.636 3.71585ZM30.5655 33.9053C30.6043 33.8692 30.6816 33.9056 30.7978 33.8697C30.72 33.9782 30.6812 34.0144 30.6424 34.0505C30.6036 34.0867 30.5263 34.0502 30.4102 34.0499C30.4879 33.9776 30.5267 33.9415 30.5655 33.9053ZM29.1595 3.78194C29.1597 3.74569 29.1598 3.70944 29.1599 3.6732C29.2373 3.6734 29.3147 3.6736 29.3921 3.6738C29.3921 3.6738 29.3919 3.71004 29.3918 3.74629L29.1595 3.78194ZM29.82 2.98625C29.8587 2.98635 29.8974 2.98645 29.936 3.02279C29.8967 3.20392 29.8573 3.38504 29.8177 3.6749C29.5866 3.3481 29.7806 3.20362 29.82 2.98625ZM29.4717 3.02159C29.7037 3.05844 29.6644 3.23956 29.5478 3.38424C29.3931 3.38384 29.2383 3.38344 29.045 3.34669C29.1231 3.12942 29.2396 2.98475 29.4717 3.02159ZM28.8498 3.85362C28.8108 3.92601 28.8105 4.03475 28.7331 4.03455C28.1517 4.323 27.6089 4.64781 27.0276 4.93626C27.4936 4.43004 28.5402 3.85282 28.8498 3.85362ZM25.9865 3.88245C26.1025 3.919 26.1796 3.99169 26.2956 4.02824C26.2954 4.06448 26.2953 4.10072 26.2566 4.10062C26.1792 4.10042 26.1405 4.10033 26.0633 4.06388C25.986 4.02743 25.9475 3.99109 25.909 3.9185C25.9477 3.9186 25.9478 3.88235 25.9865 3.88245ZM25.7162 3.73677C25.7161 3.77302 25.7159 3.80926 25.7158 3.84551C25.5994 3.95394 25.4063 3.84471 25.2516 3.80806C25.4064 3.80846 25.5613 3.77262 25.7162 3.73677ZM23.8715 34.033C24.0265 33.9609 24.1041 33.8886 24.2204 33.8164C24.2589 33.889 24.2975 33.9254 24.2973 33.9616C24.2196 34.0701 24.1421 34.1062 23.8715 34.033ZM24.6785 1.70435C24.7943 1.77714 24.7942 1.81339 24.677 2.1393C24.3677 2.066 23.9029 2.20978 23.7886 1.70205C24.1375 1.48548 24.4471 1.48629 24.6785 1.70435ZM22.4434 33.0144C22.3663 32.9417 22.3277 32.9054 22.2506 32.8327C22.2894 32.7966 22.3283 32.7242 22.3282 32.7604C22.4054 32.7969 22.4826 32.8695 22.5598 32.906L22.4434 33.0144ZM22.4363 1.15487C22.358 1.40839 22.2034 1.37174 22.049 1.26261C22.1652 1.22666 22.2814 1.19072 22.4363 1.15487ZM22.2806 1.40819C22.2803 1.51692 22.2801 1.55317 22.28 1.58941C22.2025 1.62546 22.0863 1.6614 22.0088 1.69744C22.0089 1.6612 21.9704 1.62486 21.9705 1.58861C22.048 1.55257 22.1256 1.48028 22.2806 1.40819ZM20.309 0.931893C20.309 0.931893 20.3478 0.89575 20.3477 0.931993L20.3863 0.968336C20.3473 1.04073 20.3471 1.11322 20.3081 1.18561C20.2694 1.18551 20.2694 1.18551 20.2308 1.18541C20.2698 1.07677 20.3088 1.00438 20.309 0.931893ZM19.9994 0.967335C20.0379 1.00368 20.0376 1.11242 19.9989 1.11232C19.8437 1.22065 19.7666 1.14796 19.6509 1.03893C19.7676 0.858004 19.8838 0.822058 19.9994 0.967335ZM17.7109 2.62869C18.1763 2.30369 18.6033 1.9061 19.2621 1.5816C19.2229 1.72648 19.2227 1.79897 19.184 1.79887C18.8349 2.05168 18.447 2.34064 18.0594 2.55711C17.9817 2.6294 17.827 2.629 17.7108 2.66494C17.6721 2.66484 17.6722 2.62859 17.7109 2.62869ZM17.672 2.70108C17.6717 2.77358 17.6715 2.84607 17.6328 2.84597C17.4001 2.99034 17.1676 3.09848 16.9351 3.20661C17.0907 2.9533 17.3235 2.77267 17.672 2.70108ZM16.5487 3.06063C16.6651 2.95219 16.7816 2.84376 16.8981 2.69908C16.8586 2.9527 16.8586 2.9527 16.5487 3.06063ZM2.57281 28.1424C2.41706 28.4319 2.30185 28.1779 2.14709 28.1775C2.26365 28.0328 2.3801 27.9244 2.57281 28.1424ZM1.65303 25.5666L1.73029 25.603C1.73016 25.6393 1.69122 25.7117 1.65241 25.7478C1.57515 25.7114 1.53658 25.675 1.49789 25.6749C1.5754 25.6389 1.61421 25.6027 1.65303 25.5666ZM51.5943 5.57978C51.633 5.57988 51.6717 5.57998 51.7103 5.58008C51.7106 5.50759 51.6722 5.435 51.6724 5.36251C51.6337 5.36241 51.6337 5.36241 51.595 5.36231C51.5561 5.4347 51.5945 5.50729 51.5943 5.57978ZM63.4095 12.6782C63.3709 12.6418 63.3711 12.6056 63.3325 12.5692C63.2938 12.5691 63.255 12.6053 63.2163 12.6052C63.2549 12.6415 63.2547 12.6778 63.2547 12.6778C63.332 12.7142 63.3708 12.6781 63.4095 12.6782ZM56.5055 6.3174C56.5057 6.28116 56.5057 6.28116 56.5055 6.3174C56.3508 6.317 56.2347 6.3167 56.0799 6.3163C56.2347 6.3167 56.3895 6.3171 56.5055 6.3174Z" fill="#9B51E0" fill-opacity="0.1"/>
</svg>
