<svg width="66" height="37" viewBox="0 0 66 37" fill="none" xmlns="http://www.w3.org/2000/svg">
<path id="Vector" d="M6.90982 29.1806C6.9097 29.2169 6.9097 29.2169 6.90982 29.1806V29.1806ZM1.00673 24.3085C0.811916 24.7067 0.733176 25.1052 1.04134 25.5046C0.963455 25.6494 0.885699 25.758 0.76913 25.9026C0.574688 26.1921 0.612393 26.4822 0.727467 26.7724C0.765915 26.845 0.920298 26.9541 0.959118 26.918C1.3077 26.8102 1.7715 26.9563 2.00489 26.5945C2.12084 26.631 2.19809 26.6675 2.31404 26.704C2.04184 27.102 1.53787 27.3907 1.72946 27.9349C1.96148 27.9717 2.15482 28.0085 2.34827 28.009C2.4636 28.2267 2.50167 28.408 2.38498 28.589C2.38473 28.6615 2.34567 28.7701 2.38424 28.8064C2.53838 28.9881 2.73121 29.1698 2.92417 29.3153C3.04 29.3881 3.23308 29.4973 3.34928 29.4614C4.27811 29.3913 5.24575 29.285 6.17457 29.2149C6.40684 29.1793 6.63899 29.1799 6.87113 29.1805C6.83331 28.9267 7.02689 28.8909 7.22035 28.8914C7.25903 28.8915 7.29735 29.0004 7.37436 29.1093C7.21947 29.1452 7.06458 29.181 6.87101 29.2168C7.0259 29.1809 7.21947 29.1452 7.37436 29.1093L8.22556 29.1115C8.03173 29.2198 7.95423 29.2558 7.83803 29.2917C7.91529 29.3282 7.99255 29.3646 8.0698 29.4011C7.99106 29.7996 7.8735 30.2342 8.2206 30.5613C7.90983 30.923 7.83121 31.2852 8.0233 31.6844C8.60379 31.6497 8.9907 31.6507 9.26116 31.7601C9.22222 31.8325 9.18329 31.9049 9.14435 31.9773C9.10529 32.0859 9.02766 32.1582 8.98859 32.2668C8.87165 32.5202 8.94854 32.6654 9.25794 32.7025C9.29663 32.7026 9.33532 32.7027 9.41271 32.7029C9.64485 32.7035 9.72186 32.8124 9.68243 33.0298C9.64336 33.1384 9.60418 33.2833 9.68144 33.3197C9.83558 33.5014 10.0283 33.7193 10.2601 33.8287C10.4531 33.9379 10.6853 33.9385 10.9176 33.9029C11.7691 33.7963 12.5821 33.6535 13.4338 33.5107C13.8597 33.4393 14.2858 33.2954 14.7105 33.5502C14.7109 33.4415 14.7498 33.3691 14.75 33.3329C14.9437 33.2609 15.1759 33.2252 15.3696 33.1532C16.0669 32.9013 16.7642 32.6494 17.4617 32.3613C18.5464 31.9654 19.6312 31.5332 20.716 31.1011C21.0259 30.9932 21.3748 30.8128 21.6462 30.6323C21.9565 30.4157 22.305 30.3441 22.7307 30.3089C22.6916 30.4176 22.6914 30.49 22.6526 30.5262C22.497 30.7433 22.2642 30.9601 22.1472 31.2135C22.0302 31.5032 22.029 31.8294 21.9892 32.1555C21.9495 32.4454 21.8712 32.7351 21.8315 33.025C21.7923 33.1699 21.7917 33.3511 21.7912 33.4961C22.0618 33.5693 22.2938 33.6061 22.6031 33.6794C22.6025 33.8606 22.6018 34.0418 22.5625 34.223C22.5231 34.4403 22.6 34.5855 22.7932 34.6585C23.0638 34.7317 23.0632 34.9129 23.0237 35.1303C23.0237 35.1303 23.0238 35.094 23.0625 35.0941C23.14 35.0581 23.2175 35.0221 23.2564 34.9859C23.2562 35.0222 23.2561 35.0584 23.256 35.0947C23.1786 35.0945 23.1012 35.0942 23.0237 35.1303C23.0623 35.1666 23.1395 35.2031 23.1393 35.2756C23.2918 35.9284 23.7946 36.0022 24.3362 36.0036C25.0328 35.9691 25.7294 35.9347 26.4259 35.9003C27.0451 35.8656 27.6651 35.5773 28.3226 35.6514C28.4387 35.6517 28.555 35.5796 28.6712 35.5436C28.6713 35.5074 28.6713 35.5074 28.6715 35.4711L28.3619 35.4703C28.3621 35.4341 28.3621 35.4341 28.3622 35.3978C28.672 35.3261 29.0205 35.2183 29.3303 35.1466C29.1751 35.2912 28.9816 35.2907 28.9035 35.508C29.0197 35.472 29.0971 35.4722 29.1746 35.4362C29.7556 35.2565 30.3367 35.0405 30.8789 34.8607C31.305 34.7168 31.7313 34.5367 32.1189 34.3202C32.8554 33.9234 33.7075 33.6719 34.4055 33.2025C34.5993 33.0943 34.7537 33.2034 34.753 33.4209C34.7526 33.5296 34.7136 33.6383 34.6745 33.7469L34.7132 33.747C34.7912 33.566 34.8691 33.4212 34.9858 33.2403C35.0629 33.313 35.14 33.3856 35.2172 33.4583C35.3724 33.3138 35.5278 33.1329 35.6444 32.9883C35.6827 33.0971 35.7209 33.2422 35.6821 33.2783C35.4882 33.3865 35.6032 33.7131 35.3322 33.7486C35.3316 33.9298 35.3696 34.1474 35.3688 34.3649C35.524 34.2565 35.6404 34.1481 35.7957 34.0035C35.833 34.4023 35.6389 34.583 35.4837 34.7276C35.5603 34.9453 35.6756 35.163 35.7137 35.3444C35.7509 35.7794 35.7895 35.8158 36.2151 35.8169C36.3311 35.8172 36.4473 35.7812 36.6021 35.7816C36.7182 35.7819 36.8731 35.7461 36.9502 35.8188C37.2205 35.9644 37.4915 35.9289 37.8013 35.8572C37.9563 35.7851 38.1113 35.713 38.2662 35.6772C38.4986 35.6053 38.7307 35.6059 38.9235 35.7876C38.9621 35.824 39.117 35.7881 39.2329 35.8247C39.1948 35.6796 39.1563 35.607 39.1179 35.5344C39.6993 35.2097 39.6993 35.2097 40.0463 35.5731C40.1238 35.537 40.2013 35.501 40.2788 35.4649C40.1247 35.2833 40.2796 35.2475 40.4345 35.2116C40.6667 35.176 40.8608 34.9952 41.0923 35.1771C41.1309 35.2134 41.2472 35.1412 41.286 35.1051C41.5187 34.9607 41.7513 34.8163 41.984 34.6719C42.1003 34.5998 42.2167 34.4913 42.4101 34.5281C42.4873 34.5645 42.6036 34.4923 42.6811 34.4563C43.1462 34.24 43.5725 34.0236 44.0375 33.8074C44.4251 33.6272 44.851 33.5195 45.2001 33.2667C45.7432 32.8694 46.3246 32.5447 46.9061 32.22C47.3325 32.0036 47.7589 31.751 48.1854 31.4984C48.2242 31.4623 48.2629 31.4624 48.3403 31.4626C48.4177 31.4628 48.9984 31.3555 49.076 31.2833C49.27 31.1388 49.6182 31.1397 49.6193 30.8135C49.8899 30.8867 49.8521 30.6328 49.9298 30.5243C50.1622 30.4524 50.4331 30.4531 50.5882 30.3448C51.0148 30.0559 51.4028 29.7307 51.791 29.3693C52.0625 29.1525 52.257 28.8631 52.4901 28.5737C52.6455 28.3929 52.8008 28.2483 52.9946 28.1401C53.1497 28.0317 53.3047 27.9596 53.4599 27.8513C53.6538 27.7068 53.8479 27.5261 54.0418 27.3816C54.352 27.2012 54.6236 26.9844 54.6249 26.5857C54.8959 26.5502 55.1282 26.5146 55.0516 26.2606C55.2844 26.08 55.4398 25.8992 55.6337 25.7547C55.7501 25.6825 55.8664 25.6103 55.9441 25.5018C56.0606 25.3934 56.2931 25.2852 56.2935 25.1765C56.2946 24.8503 56.6046 24.7061 56.7988 24.4891C57.2647 24.0192 57.7691 23.6218 58.1963 23.1517C58.8562 22.501 59.5163 21.814 60.1764 21.1271C60.681 20.6572 61.1855 20.2236 61.6901 19.7537C62.2335 19.2477 62.7383 18.7053 63.2819 18.163C63.9802 17.6211 64.64 17.0067 65.2612 16.3921C65.1461 16.1019 65.0696 15.8479 65.0315 15.6666C64.8384 15.5574 64.6451 15.5206 64.6455 15.4119C64.646 15.2669 64.7625 15.1222 64.8016 15.0136C64.4926 14.8678 64.2221 14.7584 63.9129 14.6489C63.8354 14.6849 63.6804 14.757 63.5254 14.8291C63.488 14.4665 63.8362 14.4674 64.0303 14.2867C63.7984 14.2136 63.5661 14.2493 63.4117 14.1401C63.2573 14.031 63.142 13.8132 63.0263 13.7042C62.7165 13.7759 62.4454 13.8477 62.1743 13.9195C62.0194 13.9553 61.8642 14.0999 61.7102 13.882C61.7103 13.8458 61.5554 13.8816 61.4392 13.9175C61.3618 13.9173 61.2843 13.9534 61.2069 13.9532C61.1691 13.6994 61.5948 13.6642 61.4798 13.374C61.3634 13.4462 61.247 13.5546 61.1305 13.663C61.0921 13.5904 61.0537 13.5179 61.0925 13.4817C61.2097 13.1558 61.2882 12.8298 61.444 12.504C61.4829 12.4679 61.5991 12.4319 61.6379 12.3958C61.5997 12.2507 61.6002 12.1057 61.5618 11.9969C61.5623 11.8519 61.4851 11.8154 61.3302 11.8513C61.2528 11.8511 61.1753 11.8871 61.1753 11.8871C61.0215 11.5968 60.8675 11.3789 60.7521 11.1974C60.869 10.944 60.9471 10.7267 61.0253 10.5094C60.7165 10.2911 60.4464 10.073 60.1763 9.85478C60.0989 9.85458 59.9827 9.89053 59.8665 9.92647C59.8668 9.85398 59.867 9.78149 59.8673 9.709C60.0239 9.16573 59.9092 8.76674 59.3297 8.51152C59.2524 8.47507 59.0982 8.32969 59.137 8.29355C59.2539 8.04013 59.022 7.96704 58.9064 7.82176C58.5213 7.31333 57.8253 7.16655 57.2825 7.49135C57.1662 7.56354 57.0114 7.56314 56.8954 7.56284C56.7789 7.67128 56.6622 7.8522 56.5071 7.96053C56.352 8.06887 56.1198 8.06827 56.0429 7.92309C55.9663 7.70542 55.773 7.66867 55.6185 7.59578C55.8518 7.23393 56.2766 7.48875 56.4706 7.30802C56.4326 7.1267 56.3944 6.98162 56.3561 6.87279C56.2397 6.94498 56.1621 7.01727 56.0459 7.05321C55.1545 7.48584 54.3403 7.99117 53.6031 8.60543C52.1285 9.87019 50.6925 11.1713 49.2564 12.4724C49.1788 12.5447 49.1013 12.5808 49.0237 12.6531C48.9851 12.6167 48.9851 12.6167 48.9465 12.5804C49.0243 12.4718 49.1022 12.3271 49.1799 12.2185C49.8019 11.3503 50.4625 10.5183 51.0459 9.64992C51.4348 9.071 51.785 8.49199 52.1353 7.87672C52.2909 7.62341 52.408 7.33375 52.3704 7.00745C52.2159 6.93456 52.1002 6.82552 51.9071 6.71629C52.062 6.68044 52.1395 6.6444 52.2945 6.57231C51.9468 6.42643 51.7536 6.35344 51.5218 6.2441L51.5233 5.80916C51.4072 5.80886 51.2912 5.80856 51.1751 5.80826C51.2921 5.5186 51.2921 5.5186 51.9114 5.44771C51.641 5.33828 51.4865 5.26539 51.2933 5.1924C51.4877 4.90294 51.2561 4.75736 50.9856 4.64793C50.7925 4.53869 50.5994 4.42945 50.445 4.32032C50.29 4.39241 50.135 4.4645 49.9413 4.53648C49.9424 4.21028 49.9433 3.95656 49.9442 3.70285C49.9453 3.37665 49.7526 3.15868 49.4825 2.94051C49.3668 2.83147 49.1734 2.79473 48.9802 2.72174C49.0193 2.6131 49.0584 2.50447 49.0974 2.39583C48.9814 2.39553 48.8653 2.39523 48.7491 2.43117C48.5191 1.81441 48.4805 1.77806 47.8226 1.81261C47.7839 1.81251 47.7065 1.81231 47.7067 1.77606C47.5912 1.59454 47.4749 1.66673 47.3199 1.73882C47.0486 1.8831 46.8159 2.02747 46.5445 2.20799C46.4674 2.09906 46.3516 2.02627 46.2746 1.91734C46.1203 1.77195 46.0048 1.62668 45.8505 1.4813C45.6179 1.62568 45.3855 1.69756 45.1915 1.84204C43.2524 3.17809 41.5061 4.69587 39.7598 6.21365C38.9835 6.93655 38.1685 7.65934 37.3923 8.34599C37.3147 8.41828 37.1985 8.45423 37.0434 8.56256C37.0054 8.34499 36.9672 8.19991 36.9677 8.05493C37.0073 7.80132 36.8917 7.65604 36.6598 7.58295C36.5439 7.5464 36.467 7.40122 36.3897 7.36478C36.3502 7.61839 36.3502 7.61839 35.9634 7.58114C36.0423 7.14641 36.0824 6.71157 36.1614 6.24058C36.084 6.24038 36.0067 6.24018 35.9292 6.27623C35.8517 6.31227 35.774 6.38456 35.7355 6.34821C35.349 6.20223 35.0773 6.45525 34.7674 6.56318C34.6124 6.63527 34.496 6.7437 34.3412 6.7433C34.3808 6.48969 34.459 6.23617 34.4211 6.01861C34.3839 5.58357 34.4242 5.11248 34.3096 4.67724L34.3097 4.641C34.3489 4.49612 34.4267 4.38759 34.4659 4.24271C34.0407 4.09662 33.692 4.2407 33.4209 4.31249C33.2279 4.20325 33.0348 4.09402 32.8417 3.98478C32.9967 3.91269 33.1129 3.87675 33.1904 3.8407C33.0363 3.65908 32.8821 3.47746 32.7279 3.33208C32.6507 3.25939 32.4962 3.1865 32.3801 3.1862C32.2254 3.18579 32.0317 3.25778 31.8767 3.32987C31.3729 3.54604 30.8691 3.79845 30.3652 4.05086C30.289 3.72446 30.5996 3.39906 30.2136 3.14434C30.3686 3.07225 30.5236 3.00016 30.6399 2.92797C30.64 2.89173 30.6015 2.85538 30.6015 2.85538C30.2139 3.03561 29.8267 3.14334 29.4777 3.35991C28.7412 3.7567 28.0046 4.18973 27.3068 4.58663C27.0742 4.731 26.8423 4.65791 26.7264 4.58512C26.2634 4.22147 25.7605 4.18392 25.1416 4.14608C25.2594 3.63895 25.0676 3.16726 25.2241 2.66024C25.3802 2.26194 25.2261 2.08032 24.7619 2.04287C24.6458 2.04257 24.4912 2.00593 24.375 2.04187C24.2202 2.04147 24.1043 2.00492 23.9886 1.89589C23.7573 1.64157 23.526 1.38726 23.2946 1.16919C23.2175 1.0965 23.1015 1.05995 22.9855 1.05965C22.7532 1.0953 22.521 1.0947 22.2885 1.20283C22.0173 1.31086 21.7459 1.49139 21.4357 1.67181C21.5138 1.45454 21.553 1.30966 21.5923 1.12854C21.2047 1.34501 21.1644 1.81609 20.7766 2.0688C20.816 1.85143 20.894 1.6704 20.8948 1.45294C20.8954 1.27172 20.8186 1.09029 20.742 0.872619C20.9743 0.836973 21.2065 0.801331 21.4001 0.765589C21.1297 0.656154 21.1297 0.656154 20.8971 0.764287C20.4709 0.944409 20.0448 1.08829 19.6957 1.3411C18.7651 1.95485 17.8341 2.64111 16.9033 3.29111C16.7482 3.39944 16.5929 3.54402 16.3602 3.72465C16.5537 3.6889 16.6311 3.6891 16.7085 3.6893C16.8243 3.76209 16.9403 3.79864 17.0948 3.87153C17.017 3.98006 16.9392 4.12484 16.8227 4.23328C16.551 4.48629 16.1249 4.63017 16.0462 5.02866C16.046 5.06491 16.0074 5.06481 15.9687 5.06471C15.2319 5.53399 14.5336 6.07586 13.951 6.72676C13.7957 6.90759 13.7566 7.01622 13.7947 7.19755C14.5687 7.12706 14.6847 7.1636 14.8774 7.38157C14.6836 7.48981 14.3738 7.5615 14.2571 7.74242C14.1404 7.92335 14.0626 8.03188 13.8301 8.14001C13.6751 8.2121 13.6358 8.39323 13.7514 8.53851C13.8283 8.68369 13.9833 8.6116 14.0996 8.53941C14.2546 8.46732 14.3711 8.35889 14.5259 8.32304C14.5648 8.2869 14.6806 8.35969 14.7193 8.35979C14.6803 8.43218 14.6801 8.50467 14.6413 8.54081C14.5636 8.6131 14.4474 8.64905 14.3698 8.72134C14.2922 8.79363 14.1372 8.86571 14.1369 8.9382C14.1748 9.19202 13.9812 9.22776 13.8262 9.29985C13.7098 9.37204 13.5935 9.44423 13.4772 9.51642C13.554 9.69784 13.5922 9.84292 13.6304 9.98801C13.5915 10.0242 13.5526 10.0965 13.5525 10.1328C11.495 12.121 9.47641 14.073 7.41898 16.0612C6.52624 16.8925 5.6335 17.7238 4.77933 18.5915C4.39118 18.9529 4.0416 19.3507 3.84641 19.8577C3.76841 20.0387 3.65159 20.2558 3.49633 20.4004C2.91399 20.9788 2.29295 21.5572 1.71061 22.1356C1.36115 22.4971 1.01181 22.8224 0.778053 23.293C0.699933 23.5103 0.660624 23.6914 0.853463 23.8731C1.20192 23.8015 1.16249 24.0189 1.00673 24.3085ZM22.1027 32.917C22.1793 33.1346 22.2561 33.316 22.2942 33.4974C21.9071 33.5326 21.8686 33.4963 22.1027 32.917ZM62.8306 14.3561C62.8307 14.3198 62.9469 14.2839 62.9857 14.2478C63.0242 14.3204 63.1013 14.393 63.1012 14.4293C63.0621 14.5379 62.9844 14.6465 62.9067 14.7187C62.868 14.7186 62.8295 14.6823 62.8295 14.6823C62.8298 14.5736 62.7915 14.4647 62.8306 14.3561ZM60.7167 10.2186C60.5612 10.4357 60.87 10.654 60.56 10.7982C60.4446 10.5804 60.3292 10.3989 60.1752 10.181C60.3686 10.1815 60.4846 10.218 60.7167 10.2186ZM59.638 8.87477C59.6375 9.01975 59.6757 9.16483 59.6753 9.27356C59.6366 9.27346 59.5978 9.30961 59.5978 9.30961C59.5207 9.23692 59.4048 9.16413 59.2504 9.05499C59.4054 8.9829 59.483 8.94686 59.638 8.87477ZM59.2488 9.52617C59.403 9.7078 59.441 9.88913 59.2472 9.99736C59.2085 9.99726 59.17 9.96091 59.1313 9.96081C59.1319 9.77959 59.2096 9.67105 59.2488 9.52617ZM57.785 7.63763C58.0564 7.49336 58.4044 7.5305 58.6747 7.71243C58.4811 7.74817 58.2875 7.78391 58.0938 7.8559C57.9001 7.92789 57.7064 7.99988 57.5513 8.10822C57.5127 8.07187 57.4741 8.03553 57.4356 7.99918C57.552 7.89075 57.63 7.70972 57.785 7.63763ZM54.4549 8.42641C54.5712 8.35422 54.6875 8.28203 54.7265 8.20964C54.9213 7.81145 55.3466 7.88504 55.7727 7.74116C55.5393 8.10301 55.5377 8.57419 54.9193 8.39136C54.842 8.35492 54.7643 8.46346 54.6868 8.4995C54.2602 8.78836 53.8335 9.11346 53.4456 9.40242C53.407 9.36607 53.407 9.36607 53.3684 9.32973C53.7565 9.00452 54.1057 8.71546 54.4549 8.42641ZM50.5516 29.7285C50.5514 29.801 50.5511 29.8735 50.551 29.9098C50.5117 30.0909 50.4345 30.0182 50.2413 29.9452C50.3578 29.8368 50.4353 29.8007 50.5516 29.7285ZM51.9835 7.00645C52.2147 7.29701 52.1751 7.55062 51.7091 8.05685C51.8263 7.73094 51.9049 7.3687 51.9835 7.00645ZM50.7532 4.71981C50.8306 4.72001 50.8689 4.82885 50.9462 4.86529C50.8687 4.90134 50.7909 5.00987 50.7522 5.00977C50.6363 4.97323 50.5591 4.90054 50.3659 4.82755C50.5596 4.75556 50.6371 4.71951 50.7532 4.71981ZM49.4425 3.30286C49.6747 3.30346 49.6354 3.48458 49.5961 3.6657L49.2479 3.6648C49.1325 3.44703 49.2104 3.30226 49.4425 3.30286ZM49.2076 4.13589L49.2462 4.13599C49.2073 4.20838 49.2069 4.31711 49.168 4.3895C49.1293 4.3894 49.1293 4.3894 49.0907 4.35306C49.1295 4.31691 49.1686 4.20828 49.2076 4.13589ZM47.8994 1.99403C47.8988 2.17526 47.937 2.32034 47.898 2.39273C47.7425 2.60979 47.51 2.71793 47.1232 2.68068C47.3949 2.42767 47.6277 2.24705 47.8994 1.99403ZM45.5007 1.95158C45.7718 1.87979 46.0039 1.88039 46.2749 1.84485C46.2744 1.98983 46.3126 2.13491 46.3119 2.31613C46.2732 2.31603 46.2344 2.35217 46.2344 2.35217C46.196 2.27958 46.1574 2.24324 46.0804 2.13431C46.0413 2.24294 46.0024 2.31533 45.9635 2.38772C45.6928 2.35077 45.4222 2.27758 45.1515 2.24064C45.1908 2.05951 45.3458 1.98742 45.5007 1.95158ZM45.3055 2.45851C45.2663 2.60339 45.3045 2.74846 45.227 2.78451C45.1105 2.89294 44.9941 3.00138 44.8392 3.03722C44.2968 3.25329 43.87 3.61464 43.4431 3.97598C43.2492 4.12046 43.0553 4.2287 42.8614 4.37317C42.8228 4.33683 42.8229 4.30059 42.7844 4.26424C43.599 3.65018 44.2978 2.96333 45.3055 2.45851ZM41.4647 5.49316C41.6981 5.13131 42.047 4.91475 42.4347 4.69828C42.2013 5.06013 41.8521 5.34918 41.4644 5.56565C41.4644 5.56565 41.4259 5.5293 41.4647 5.49316ZM41.4256 5.6018C41.3479 5.71033 41.2702 5.78262 41.1148 5.96344C41.2319 5.67379 41.2319 5.67379 41.4256 5.6018ZM36.7585 35.3108C36.5644 35.4916 36.5644 35.4916 36.2161 35.5269C36.2162 35.4907 36.1776 35.4543 36.1777 35.4181C36.3713 35.3823 36.5262 35.3465 36.7585 35.3108ZM36.6204 7.80031C36.6972 7.98174 36.6193 8.12652 36.4644 8.16236C36.2708 8.19811 36.0775 8.16136 36.001 7.90745C36.2332 7.8718 36.4268 7.83606 36.6204 7.80031ZM33.5753 4.42163C33.7305 4.31329 33.9242 4.2413 34.0789 4.24171C34.2724 4.24221 34.2718 4.42343 34.31 4.56851C34.1159 4.74923 33.8836 4.78488 33.6517 4.71178C33.5359 4.639 33.4591 4.45757 33.5753 4.42163ZM32.0811 34.0664C32.0423 34.1025 32.0036 34.1024 31.9649 34.1023C31.9262 34.1022 31.8876 34.0659 31.8105 33.9932C31.9267 33.9572 31.9654 33.9573 32.0041 33.9574C32.0426 33.9938 32.0811 34.0664 32.0811 34.0664ZM31.9125 4.1636C31.9123 4.23609 31.9508 4.27244 31.9507 4.30868C31.8731 4.38097 31.7569 4.41692 31.6792 4.48921C31.6407 4.45286 31.6408 4.41662 31.6022 4.38027C31.6799 4.30798 31.7962 4.23579 31.9125 4.1636ZM30.842 34.3531C30.8808 34.317 30.9581 34.3534 31.0743 34.3175C30.9965 34.426 30.9577 34.4622 30.9189 34.4983C30.8801 34.5345 30.8028 34.498 30.6867 34.4977C30.7644 34.4254 30.8032 34.3893 30.842 34.3531ZM29.436 4.22969C29.4362 4.19344 29.4363 4.15719 29.4364 4.12095C29.5138 4.12115 29.5912 4.12135 29.6686 4.12155C29.6686 4.12155 29.6684 4.15779 29.6683 4.19404L29.436 4.22969ZM30.0965 3.434C30.1352 3.4341 30.1739 3.4342 30.2125 3.47054C30.1732 3.65167 30.1338 3.83279 30.0942 4.12265C29.8631 3.79585 30.0571 3.65137 30.0965 3.434ZM29.7482 3.46934C29.9802 3.50619 29.9409 3.68731 29.8243 3.83199C29.6696 3.83159 29.5148 3.83119 29.3215 3.79444C29.3996 3.57717 29.5161 3.4325 29.7482 3.46934ZM29.1263 4.30137C29.0873 4.37376 29.087 4.4825 29.0096 4.4823C28.4282 4.77075 27.8854 5.09556 27.3041 5.38401C27.7701 4.87779 28.8167 4.30057 29.1263 4.30137ZM26.263 4.3302C26.379 4.36675 26.4561 4.43944 26.5721 4.47599C26.5719 4.51223 26.5718 4.54847 26.5331 4.54837C26.4557 4.54817 26.417 4.54808 26.3398 4.51163C26.2625 4.47518 26.224 4.43884 26.1855 4.36625C26.2242 4.36635 26.2243 4.3301 26.263 4.3302ZM25.9927 4.18452C25.9926 4.22077 25.9924 4.25701 25.9923 4.29326C25.8759 4.40169 25.6828 4.29246 25.5281 4.25581C25.6829 4.25621 25.8378 4.22037 25.9927 4.18452ZM24.148 34.4808C24.303 34.4087 24.3806 34.3364 24.4969 34.2642C24.5354 34.3368 24.574 34.3732 24.5738 34.4094C24.4961 34.5179 24.4186 34.554 24.148 34.4808ZM24.955 2.1521C25.0708 2.22489 25.0707 2.26114 24.9535 2.58705C24.6442 2.51375 24.1794 2.65753 24.0651 2.1498C24.414 1.93323 24.7236 1.93404 24.955 2.1521ZM22.7199 33.4622C22.6428 33.3895 22.6042 33.3532 22.5271 33.2805C22.5659 33.2444 22.6048 33.172 22.6047 33.2082C22.6819 33.2447 22.7591 33.3173 22.8363 33.3538L22.7199 33.4622ZM22.7128 1.60263C22.6345 1.85614 22.4799 1.81949 22.3255 1.71036C22.4417 1.67441 22.5579 1.63847 22.7128 1.60263ZM22.5571 1.85594C22.5568 1.96467 22.5566 2.00092 22.5565 2.03716C22.479 2.07321 22.3628 2.10915 22.2853 2.14519C22.2854 2.10895 22.2469 2.07261 22.247 2.03636C22.3245 2.00032 22.4021 1.92803 22.5571 1.85594ZM20.5855 1.37965C20.5855 1.37965 20.6243 1.3435 20.6242 1.37975L20.6628 1.41609C20.6238 1.48848 20.6236 1.56097 20.5846 1.63336C20.5459 1.63326 20.5459 1.63326 20.5073 1.63316C20.5463 1.52453 20.5853 1.45214 20.5855 1.37965ZM20.2759 1.41509C20.3144 1.45144 20.3141 1.56017 20.2754 1.56007C20.1202 1.6684 20.0431 1.59572 19.9274 1.48668C20.0441 1.30576 20.1603 1.26981 20.2759 1.41509ZM17.9874 3.07644C18.4528 2.75144 18.8798 2.35385 19.5386 2.02935C19.4994 2.17423 19.4992 2.24672 19.4605 2.24662C19.1114 2.49943 18.7235 2.78839 18.3359 3.00486C18.2582 3.07715 18.1035 3.07675 17.9873 3.11269C17.9486 3.11259 17.9487 3.07634 17.9874 3.07644ZM17.9485 3.14883C17.9482 3.22133 17.948 3.29382 17.9093 3.29372C17.6766 3.43809 17.4441 3.54623 17.2116 3.65436C17.3672 3.40105 17.6 3.22042 17.9485 3.14883ZM16.8252 3.50838C16.9416 3.39994 17.0581 3.29151 17.1746 3.14683C17.1351 3.40045 17.1351 3.40045 16.8252 3.50838ZM2.84927 28.5902C2.69352 28.8797 2.57831 28.6257 2.42355 28.6253C2.54011 28.4806 2.65656 28.3722 2.84927 28.5902ZM1.92949 26.0144L2.00675 26.0508C2.00662 26.0871 1.96768 26.1595 1.92887 26.1956C1.85161 26.1592 1.81304 26.1228 1.77435 26.1227C1.85186 26.0867 1.89067 26.0505 1.92949 26.0144ZM51.8708 6.02753C51.9095 6.02763 51.9482 6.02773 51.9868 6.02783C51.9871 5.95534 51.9487 5.88275 51.9489 5.81026C51.9102 5.81016 51.9102 5.81016 51.8715 5.81006C51.8326 5.88245 51.871 5.95504 51.8708 6.02753ZM63.686 13.126C63.6474 13.0896 63.6476 13.0534 63.609 13.017C63.5703 13.0169 63.5315 13.0531 63.4928 13.053C63.5314 13.0893 63.5312 13.1256 63.5312 13.1256C63.6085 13.162 63.6473 13.1259 63.686 13.126ZM56.782 6.76515C56.7822 6.72891 56.7822 6.72891 56.782 6.76515C56.6273 6.76475 56.5112 6.76445 56.3564 6.76405C56.5112 6.76445 56.666 6.76485 56.782 6.76515Z" fill="#2494E4" fill-opacity="0.1"/>
</svg>
