<svg width="58" height="37" viewBox="0 0 58 37" fill="none" xmlns="http://www.w3.org/2000/svg">
<path id="Vector" d="M6.10374 29.6415C6.10364 29.678 6.10364 29.678 6.10374 29.6415V29.6415ZM0.920541 24.7249C0.749485 25.1266 0.680341 25.5288 0.950926 25.9319C0.882544 26.078 0.814269 26.1876 0.711917 26.3335C0.541187 26.6257 0.574287 26.9184 0.675335 27.2113C0.709094 27.2845 0.844649 27.3946 0.878735 27.3582C1.18481 27.2493 1.59205 27.3968 1.79697 27.0317C1.89878 27.0686 1.96661 27.1054 2.06842 27.1423C1.82942 27.5439 1.38691 27.8352 1.55513 28.3843C1.75886 28.4215 1.92862 28.4586 2.09848 28.4591C2.19974 28.6789 2.23317 28.8619 2.13071 29.0444C2.13049 29.1176 2.09619 29.2272 2.13006 29.2638C2.2654 29.4472 2.43472 29.6305 2.60415 29.7773C2.70585 29.8508 2.87538 29.961 2.97741 29.9247C3.79296 29.8541 4.6426 29.7469 5.45816 29.6761C5.6621 29.6402 5.86594 29.6408 6.06977 29.6414C6.03656 29.3853 6.20653 29.3492 6.37639 29.3496C6.41037 29.3498 6.44401 29.4596 6.51163 29.5695C6.37564 29.6057 6.23964 29.6418 6.06966 29.6779C6.20566 29.6417 6.37564 29.6057 6.51163 29.5695L7.25902 29.5718C7.08883 29.681 7.02078 29.7174 6.91875 29.7536C6.98659 29.7904 7.05443 29.8272 7.12226 29.864C7.05312 30.266 6.9499 30.7047 7.25467 31.0348C6.9818 31.3998 6.91277 31.7653 7.08143 32.1682C7.59113 32.133 7.93085 32.1341 8.16833 32.2445C8.13414 32.3176 8.09996 32.3907 8.06577 32.4637C8.03147 32.5733 7.9633 32.6463 7.929 32.7558C7.82632 33.0116 7.89384 33.1582 8.1655 33.1955C8.19948 33.1956 8.23346 33.1957 8.3014 33.1959C8.50523 33.1965 8.57285 33.3065 8.53823 33.5258C8.50392 33.6355 8.46952 33.7817 8.53735 33.8184C8.6727 34.0017 8.84191 34.2216 9.04541 34.332C9.21495 34.4422 9.41878 34.4428 9.62275 34.4068C10.3704 34.2994 11.0843 34.1552 11.8321 34.0111C12.2061 33.939 12.5802 33.7939 12.9531 34.051C12.9535 33.9413 12.9876 33.8682 12.9878 33.8316C13.1579 33.759 13.3617 33.723 13.5318 33.6504C14.1441 33.3962 14.7563 33.1419 15.3688 32.8512C16.3212 32.4517 17.2737 32.0156 18.2262 31.5795C18.4983 31.4705 18.8047 31.2886 19.043 31.1064C19.3154 30.8878 19.6214 30.8155 19.9952 30.7801C19.9609 30.8897 19.9607 30.9629 19.9267 30.9993C19.79 31.2184 19.5856 31.4373 19.4829 31.693C19.3801 31.9853 19.3791 32.3144 19.3442 32.6435C19.3093 32.936 19.2405 33.2285 19.2057 33.521C19.1713 33.6672 19.1707 33.8501 19.1703 33.9963C19.4079 34.0702 19.6116 34.1074 19.8832 34.1813C19.8827 34.3642 19.882 34.5471 19.8475 34.7299C19.8129 34.9492 19.8805 35.0957 20.0501 35.1694C20.2877 35.2433 20.2872 35.4262 20.2525 35.6455C20.2525 35.6455 20.2526 35.6089 20.2866 35.6091C20.3546 35.5726 20.4227 35.5363 20.4568 35.4998C20.4566 35.5364 20.4566 35.573 20.4565 35.6095C20.3885 35.6093 20.3205 35.6091 20.2525 35.6455C20.2864 35.6822 20.3542 35.719 20.354 35.7921C20.4879 36.4508 20.9294 36.5254 21.4049 36.5268C22.0166 36.492 22.6282 36.4573 23.2398 36.4225C23.7835 36.3875 24.3279 36.0965 24.9052 36.1714C25.0071 36.1717 25.1092 36.0988 25.2113 36.0626C25.2114 36.026 25.2114 36.026 25.2115 35.9894L24.9397 35.9886C24.9399 35.952 24.9399 35.952 24.94 35.9155C25.212 35.8431 25.518 35.7344 25.79 35.662C25.6537 35.8078 25.4838 35.8074 25.4152 36.0267C25.5173 35.9904 25.5852 35.9906 25.6533 35.9542C26.1634 35.7728 26.6737 35.5549 27.1498 35.3734C27.5239 35.2282 27.8982 35.0465 28.2385 34.828C28.8852 34.4276 29.6334 34.1738 30.2463 33.7001C30.4164 33.5909 30.552 33.7011 30.5514 33.9205C30.551 34.0302 30.5168 34.1398 30.4825 34.2495L30.5164 34.2496C30.5849 34.0669 30.6533 33.9207 30.7558 33.7382C30.8235 33.8115 30.8912 33.8849 30.959 33.9582C31.0953 33.8124 31.2317 33.6299 31.3341 33.4839C31.3677 33.5938 31.4013 33.7401 31.3672 33.7766C31.1969 33.8858 31.2979 34.2153 31.06 34.2512C31.0594 34.4341 31.0928 34.6537 31.0921 34.8731C31.2284 34.7638 31.3306 34.6544 31.4669 34.5084C31.4997 34.9108 31.3293 35.0932 31.193 35.2391C31.2602 35.4588 31.3615 35.6785 31.3949 35.8615C31.4276 36.3005 31.4615 36.3372 31.8352 36.3384C31.937 36.3386 32.0391 36.3024 32.175 36.3028C32.2769 36.3031 32.4129 36.2669 32.4806 36.3403C32.718 36.4873 32.9559 36.4514 33.228 36.379C33.364 36.3063 33.5001 36.2335 33.6362 36.1973C33.8402 36.1248 34.044 36.1254 34.2133 36.3089C34.2472 36.3455 34.3832 36.3093 34.485 36.3462C34.4515 36.1998 34.4177 36.1266 34.384 36.0533C34.8945 35.7257 34.8945 35.7257 35.1992 36.0923C35.2672 36.0559 35.3353 36.0195 35.4033 35.9832C35.268 35.7999 35.404 35.7638 35.54 35.7276C35.7439 35.6916 35.9143 35.5092 36.1176 35.6927C36.1515 35.7294 36.2536 35.6566 36.2877 35.62C36.492 35.4744 36.6962 35.3287 36.9006 35.1829C37.0027 35.1101 37.1049 35.0007 37.2747 35.0378C37.3425 35.0746 37.4446 35.0017 37.5126 34.9654C37.921 34.7471 38.2953 34.5287 38.7036 34.3105C39.044 34.1287 39.4179 34.0201 39.7245 33.7649C40.2013 33.364 40.7118 33.0363 41.2224 32.7086C41.5968 32.4903 41.9712 32.2353 42.3457 31.9804C42.3798 31.944 42.4137 31.9441 42.4817 31.9443C42.5497 31.9445 43.0596 31.8363 43.1277 31.7633C43.298 31.6175 43.6038 31.6184 43.6047 31.2892C43.8423 31.3631 43.8091 31.1069 43.8774 30.9975C44.0814 30.9249 44.3193 30.9256 44.4555 30.8163C44.83 30.5248 45.1707 30.1966 45.5116 29.8318C45.75 29.6131 45.9208 29.321 46.1254 29.029C46.2619 28.8465 46.3982 28.7007 46.5684 28.5914C46.7046 28.4821 46.8407 28.4093 46.977 28.3C47.1472 28.1542 47.3176 27.9719 47.4879 27.826C47.7603 27.644 47.9987 27.4252 47.9999 27.0229C48.2378 26.9871 48.4418 26.9511 48.3746 26.6948C48.579 26.5126 48.7154 26.3301 48.8857 26.1843C48.9879 26.1114 49.09 26.0386 49.1582 25.929C49.2605 25.8196 49.4646 25.7105 49.465 25.6008C49.466 25.2716 49.7382 25.1261 49.9087 24.9071C50.3178 24.4329 50.7607 24.0318 51.1357 23.5575C51.7152 22.9008 52.2948 22.2076 52.8744 21.5144C53.3174 21.0402 53.7604 20.6026 54.2035 20.1284C54.6806 19.6178 55.1239 19.0705 55.6012 18.5232C56.2143 17.9764 56.7936 17.3564 57.3391 16.7362C57.238 16.4433 57.1709 16.187 57.1374 16.004C56.9678 15.8938 56.7981 15.8567 56.7985 15.747C56.7989 15.6007 56.9012 15.4547 56.9355 15.345C56.6642 15.1979 56.4267 15.0875 56.1552 14.9769C56.0872 15.0134 55.9511 15.0861 55.815 15.1589C55.7821 14.793 56.0879 14.7939 56.2583 14.6115C56.0547 14.5377 55.8507 14.5737 55.7151 14.4636C55.5796 14.3534 55.4783 14.1337 55.3767 14.0236C55.1047 14.096 54.8667 14.1684 54.6286 14.2409C54.4926 14.277 54.3563 14.423 54.2211 14.2031C54.2212 14.1665 54.0852 14.2027 53.9832 14.239C53.9152 14.2388 53.8472 14.2751 53.7792 14.2749C53.746 14.0188 54.1198 13.9833 54.0188 13.6904C53.9166 13.7633 53.8144 13.8727 53.7121 13.9821C53.6784 13.9089 53.6447 13.8356 53.6788 13.7991C53.7817 13.4703 53.8506 13.1413 53.9874 12.8125C54.0215 12.776 54.1236 12.7397 54.1576 12.7033C54.1241 12.5569 54.1245 12.4106 54.0908 12.3007C54.0913 12.1544 54.0235 12.1177 53.8875 12.1538C53.8195 12.1537 53.7515 12.19 53.7515 12.19C53.6164 11.897 53.4812 11.6771 53.3799 11.494C53.4825 11.2382 53.5511 11.0189 53.6198 10.7997C53.3486 10.5795 53.1115 10.3593 52.8743 10.1391C52.8063 10.139 52.7043 10.1752 52.6023 10.2115C52.6025 10.1384 52.6027 10.0651 52.603 9.99198C52.7405 9.44378 52.6398 9.04115 52.1309 8.7836C52.0631 8.74681 51.9277 8.60011 51.9617 8.56364C52.0644 8.3079 51.8608 8.23414 51.7593 8.08754C51.4211 7.57446 50.81 7.42633 50.3334 7.75411C50.2313 7.82695 50.0954 7.82656 49.9935 7.82625C49.8912 7.93567 49.7887 8.11825 49.6526 8.22758C49.5164 8.3369 49.3125 8.33629 49.245 8.18979C49.1777 7.97013 49.008 7.93305 48.8723 7.85949C49.0772 7.49434 49.4502 7.75148 49.6205 7.56911C49.5871 7.38612 49.5536 7.23972 49.52 7.12989C49.4178 7.20274 49.3496 7.27569 49.2476 7.31196C48.4649 7.74855 47.75 8.25849 47.1027 8.87836C45.8079 10.1547 44.5471 11.4677 43.2861 12.7807C43.2179 12.8536 43.1499 12.89 43.0818 12.9629C43.0479 12.9262 43.0479 12.9262 43.014 12.8896C43.0823 12.7801 43.1507 12.6339 43.2189 12.5245C43.7651 11.6482 44.3451 10.8087 44.8574 9.93236C45.1988 9.34819 45.5063 8.76388 45.8139 8.143C45.9505 7.88737 46.0533 7.59507 46.0203 7.26578C45.8847 7.19223 45.7831 7.08219 45.6135 6.97196C45.7495 6.93579 45.8176 6.89942 45.9537 6.82667C45.6484 6.67946 45.4787 6.6058 45.2752 6.49546L45.2765 6.05655C45.1746 6.05624 45.0727 6.05595 44.9708 6.05564C45.0735 5.76334 45.0735 5.76334 45.6173 5.6918C45.3799 5.58137 45.2442 5.50782 45.0746 5.43416C45.2453 5.14206 45.0419 4.99514 44.8044 4.88471C44.6349 4.77447 44.4653 4.66424 44.3297 4.55411C44.1936 4.62685 44.0575 4.6996 43.8875 4.77225C43.8884 4.44307 43.8892 4.18703 43.89 3.931C43.891 3.60182 43.7218 3.38186 43.4846 3.16169C43.383 3.05166 43.2132 3.01458 43.0436 2.94092C43.0779 2.83129 43.1122 2.72166 43.1465 2.61204C43.0446 2.61174 42.9427 2.61143 42.8407 2.6477C42.6386 2.02531 42.6048 1.98863 42.0271 2.02349C41.9932 2.02338 41.9252 2.02318 41.9254 1.98661C41.824 1.80342 41.7218 1.87628 41.5857 1.94902C41.3474 2.09462 41.1432 2.24031 40.9049 2.42248C40.8372 2.31256 40.7355 2.2391 40.6679 2.12917C40.5324 1.98247 40.431 1.83586 40.2955 1.68915C40.0913 1.83484 39.8872 1.90739 39.7169 2.05319C38.0143 3.40145 36.4809 4.93309 34.9476 6.46474C34.266 7.19423 33.5504 7.92364 32.8688 8.61656C32.8007 8.6895 32.6987 8.72578 32.5625 8.8351C32.5291 8.61555 32.4956 8.46914 32.496 8.32283C32.5308 8.06691 32.4293 7.9203 32.2257 7.84653C32.1239 7.80966 32.0564 7.66315 31.9885 7.62638C31.9538 7.88231 31.9538 7.88231 31.6142 7.84472C31.6835 7.40601 31.7187 6.96719 31.788 6.49191C31.7201 6.49171 31.6522 6.49151 31.5842 6.52788C31.5161 6.56426 31.4479 6.63721 31.4141 6.60053C31.0747 6.45321 30.8361 6.70854 30.564 6.81746C30.4279 6.89021 30.3257 6.99963 30.1898 6.99923C30.2246 6.74329 30.2932 6.48746 30.26 6.26791C30.2273 5.82889 30.2627 5.35351 30.1621 4.91429L30.1622 4.87772C30.1966 4.73152 30.2649 4.62199 30.2993 4.47578C29.926 4.32837 29.6198 4.47376 29.3817 4.5462C29.2123 4.43597 29.0427 4.32574 28.8732 4.2155C29.0093 4.14276 29.1113 4.10648 29.1794 4.07012C29.044 3.88683 28.9086 3.70355 28.7733 3.55683C28.7055 3.48348 28.5698 3.40993 28.4679 3.40962C28.332 3.40922 28.162 3.48187 28.0259 3.55461C27.5835 3.77276 27.1411 4.02748 26.6987 4.28219C26.6318 3.95281 26.9045 3.62443 26.5656 3.36739C26.7017 3.29464 26.8378 3.22189 26.9399 3.14904C26.94 3.11246 26.9062 3.07579 26.9062 3.07579C26.5658 3.25766 26.2259 3.36638 25.9194 3.58492C25.2727 3.98534 24.626 4.42233 24.0133 4.82285C23.809 4.96854 23.6054 4.89479 23.5036 4.82133C23.0971 4.45436 22.6555 4.41646 22.1121 4.37828C22.2155 3.86651 22.0471 3.39052 22.1846 2.87886C22.3216 2.47693 22.1863 2.29365 21.7787 2.25586C21.6768 2.25555 21.541 2.21857 21.439 2.25485C21.3031 2.25444 21.2013 2.21756 21.0997 2.10753C20.8966 1.85089 20.6935 1.59425 20.4904 1.37419C20.4227 1.30084 20.3208 1.26395 20.219 1.26365C20.015 1.29962 19.8111 1.29901 19.607 1.40814C19.3688 1.51716 19.1305 1.69933 18.8582 1.8814C18.9267 1.66215 18.9611 1.51594 18.9957 1.33317C18.6553 1.55161 18.6199 2.027 18.2794 2.28202C18.314 2.06267 18.3825 1.87999 18.3832 1.66053C18.3837 1.47765 18.3163 1.29457 18.2491 1.07491C18.453 1.03894 18.6569 1.00297 18.8269 0.966904C18.5895 0.856467 18.5895 0.856467 18.3852 0.965589C18.011 1.14736 17.6369 1.29255 17.3303 1.54767C16.5132 2.16703 15.6958 2.85955 14.8785 3.5155C14.7423 3.62482 14.6059 3.77072 14.4016 3.95299C14.5715 3.91692 14.6395 3.91712 14.7074 3.91733C14.8091 3.99078 14.911 4.02766 15.0466 4.10122C14.9783 4.21074 14.9099 4.35684 14.8077 4.46627C14.5691 4.72159 14.195 4.86679 14.1259 5.26892C14.1257 5.3055 14.0918 5.30539 14.0579 5.30529C13.4109 5.77886 12.7978 6.32568 12.2862 6.98253C12.1499 7.16501 12.1155 7.27463 12.149 7.45762C12.8286 7.38649 12.9304 7.42337 13.0996 7.64333C12.9295 7.75255 12.6575 7.8249 12.555 8.00747C12.4525 8.19004 12.3842 8.29957 12.1801 8.4087C12.044 8.48144 12.0095 8.66423 12.111 8.81083C12.1785 8.95734 12.3146 8.88459 12.4167 8.81174C12.5528 8.73899 12.6551 8.62957 12.791 8.59339C12.8252 8.55692 12.9268 8.63038 12.9608 8.63047C12.9266 8.70353 12.9264 8.77668 12.8923 8.81315C12.8241 8.88611 12.7221 8.92238 12.6539 8.99533C12.5858 9.06828 12.4497 9.14102 12.4495 9.21417C12.4827 9.47031 12.3127 9.50638 12.1766 9.57913C12.0744 9.652 11.9723 9.72479 11.8702 9.79767C11.9376 9.98075 11.9712 10.1272 12.0047 10.2736C11.9706 10.31 11.9364 10.3831 11.9363 10.4197C10.1297 12.426 8.35733 14.3958 6.55081 16.4022C5.76694 17.2411 4.98307 18.08 4.23307 18.9556C3.89225 19.3204 3.5853 19.7218 3.41392 20.2334C3.34543 20.416 3.24286 20.6352 3.10653 20.7811C2.5952 21.3647 2.0499 21.9484 1.53858 22.5321C1.23174 22.8969 0.925002 23.2252 0.719752 23.7001C0.651158 23.9193 0.616644 24.1021 0.785959 24.2855C1.09193 24.2132 1.05731 24.4326 0.920541 24.7249ZM19.4438 33.4119C19.5111 33.6316 19.5785 33.8147 19.612 33.9977C19.2721 34.0332 19.2383 33.9965 19.4438 33.4119ZM55.2049 14.6816C55.205 14.6449 55.307 14.6087 55.3411 14.5722C55.3749 14.6455 55.4426 14.7188 55.4425 14.7554C55.4082 14.865 55.3399 14.9746 55.2717 15.0475C55.2377 15.0473 55.2039 15.0107 55.2039 15.0107C55.2042 14.901 55.1706 14.7911 55.2049 14.6816ZM53.3488 10.5063C53.2122 10.7253 53.4834 10.9456 53.2112 11.0911C53.1099 10.8714 53.0085 10.6882 52.8733 10.4683C53.0431 10.4689 53.145 10.5057 53.3488 10.5063ZM52.4016 9.15016C52.4012 9.29646 52.4347 9.44287 52.4344 9.5526C52.4004 9.55249 52.3663 9.58897 52.3663 9.58897C52.2986 9.51562 52.1969 9.44217 52.0613 9.33203C52.1974 9.25929 52.2655 9.22291 52.4016 9.15016ZM52.0599 9.80751C52.1953 9.99084 52.2287 10.1737 52.0585 10.283C52.0245 10.2829 51.9907 10.2463 51.9567 10.2461C51.9573 10.0633 52.0255 9.9537 52.0599 9.80751ZM50.7746 7.90173C51.0129 7.75613 51.3185 7.79361 51.5558 7.9772C51.3858 8.01327 51.2158 8.04935 51.0458 8.122C50.8757 8.19464 50.7056 8.26729 50.5694 8.37661C50.5355 8.33994 50.5016 8.30325 50.4678 8.26657C50.57 8.15715 50.6385 7.97447 50.7746 7.90173ZM47.8506 8.69771C47.9527 8.62485 48.0549 8.55201 48.0891 8.47896C48.2601 8.07713 48.6336 8.15139 49.0077 8.0062C48.8028 8.37135 48.8014 8.84684 48.2584 8.66235C48.1905 8.62556 48.1223 8.73509 48.0542 8.77146C47.6797 9.06297 47.305 9.39103 46.9644 9.68265C46.9305 9.64595 46.9305 9.64595 46.8966 9.60928C47.2374 9.2811 47.544 8.9894 47.8506 8.69771ZM44.4233 30.1944C44.4232 30.2675 44.4229 30.3407 44.4228 30.3773C44.3883 30.56 44.3205 30.4867 44.1509 30.413C44.2532 30.3036 44.3212 30.2673 44.4233 30.1944ZM45.6806 7.26477C45.8836 7.55799 45.8488 7.81391 45.4397 8.32477C45.5426 7.99589 45.6116 7.63033 45.6806 7.26477ZM44.6003 4.95725C44.6683 4.95745 44.7019 5.06728 44.7698 5.10406C44.7018 5.14043 44.6334 5.24996 44.5995 5.24986C44.4977 5.21298 44.4299 5.13962 44.2603 5.06597C44.4304 4.99332 44.4984 4.95695 44.6003 4.95725ZM43.4495 3.52735C43.6534 3.52796 43.6189 3.71073 43.5844 3.89351L43.2786 3.8926C43.1773 3.67284 43.2457 3.52674 43.4495 3.52735ZM43.2432 4.36799L43.2771 4.36809C43.243 4.44114 43.2426 4.55087 43.2085 4.62392C43.1745 4.62382 43.1745 4.62382 43.1406 4.58715C43.1747 4.55066 43.209 4.44104 43.2432 4.36799ZM42.0946 2.20657C42.094 2.38945 42.1276 2.53586 42.0933 2.60891C41.9568 2.82796 41.7527 2.93708 41.413 2.89949C41.6516 2.64417 41.856 2.46189 42.0946 2.20657ZM39.9884 2.16373C40.2264 2.09128 40.4302 2.09189 40.6682 2.05602C40.6677 2.20232 40.7013 2.34873 40.7007 2.53161C40.6667 2.53151 40.6326 2.56799 40.6326 2.56799C40.5989 2.49473 40.565 2.45805 40.4974 2.34812C40.4631 2.45775 40.4289 2.5308 40.3948 2.60385C40.1571 2.56657 39.9195 2.49271 39.6818 2.45543C39.7163 2.27264 39.8524 2.1999 39.9884 2.16373ZM39.817 2.67529C39.7826 2.8215 39.8161 2.96789 39.7481 3.00427C39.6458 3.11369 39.5436 3.22312 39.4076 3.25929C38.9313 3.47733 38.5566 3.84198 38.1817 4.20663C38.0115 4.35243 37.8412 4.46165 37.671 4.60745C37.6371 4.57077 37.6372 4.53419 37.6034 4.49751C38.3186 3.87785 38.9322 3.18473 39.817 2.67529ZM36.4446 5.73766C36.6495 5.37251 36.9559 5.15396 37.2963 4.93552C37.0914 5.30068 36.7847 5.59237 36.4443 5.81081C36.4443 5.81081 36.4105 5.77414 36.4446 5.73766ZM36.4103 5.8473C36.342 5.95681 36.2738 6.02976 36.1374 6.21224C36.2402 5.91994 36.2402 5.91994 36.4103 5.8473ZM32.3123 35.8277C32.1419 36.0101 32.1419 36.0101 31.8361 36.0457C31.8362 36.0092 31.8023 35.9725 31.8023 35.9359C31.9723 35.8999 32.1083 35.8637 32.3123 35.8277ZM32.1911 8.0659C32.2585 8.24898 32.1901 8.39508 32.0541 8.43125C31.8841 8.46732 31.7144 8.43024 31.6472 8.174C31.8511 8.13804 32.0211 8.10196 32.1911 8.0659ZM29.5173 4.65635C29.6536 4.54702 29.8237 4.47437 29.9595 4.47477C30.1294 4.47528 30.1289 4.65816 30.1624 4.80457C29.992 4.98694 29.788 5.0229 29.5844 4.94915C29.4827 4.8757 29.4153 4.69261 29.5173 4.65635ZM28.2053 34.5719C28.1713 34.6083 28.1373 34.6083 28.1033 34.6082C28.0693 34.6081 28.0354 34.5714 27.9677 34.498C28.0698 34.4617 28.1037 34.4618 28.1377 34.462C28.1715 34.4986 28.2053 34.5719 28.2053 34.5719ZM28.0573 4.39596C28.0571 4.46911 28.0909 4.50579 28.0908 4.54237C28.0227 4.61531 27.9207 4.65159 27.8524 4.72454C27.8186 4.68786 27.8187 4.65129 27.7848 4.61461C27.8531 4.54165 27.9552 4.46881 28.0573 4.39596ZM27.1173 34.8612C27.1514 34.8248 27.2193 34.8616 27.3213 34.8253C27.253 34.9348 27.2189 34.9712 27.1849 35.0078C27.1508 35.0442 27.0829 35.0074 26.981 35.0072C27.0492 34.9342 27.0833 34.8978 27.1173 34.8612ZM25.8828 4.46265C25.883 4.42607 25.8831 4.3895 25.8832 4.35292C25.9511 4.35312 26.0191 4.35332 26.087 4.35352C26.087 4.35352 26.0869 4.39009 26.0868 4.42667L25.8828 4.46265ZM26.4628 3.65969C26.4967 3.6598 26.5307 3.65989 26.5646 3.69657C26.5301 3.87935 26.4955 4.06213 26.4607 4.35464C26.2578 4.02484 26.4282 3.87904 26.4628 3.65969ZM26.1569 3.69536C26.3606 3.73254 26.3261 3.91532 26.2238 4.06132C26.0879 4.06091 25.952 4.06051 25.7823 4.02343C25.8508 3.80417 25.9531 3.65817 26.1569 3.69536ZM25.6109 4.53499C25.5766 4.60804 25.5764 4.71777 25.5084 4.71756C24.9979 5.00865 24.5213 5.33643 24.0109 5.62752C24.4201 5.11666 25.339 4.53418 25.6109 4.53499ZM23.0968 4.56408C23.1986 4.60097 23.2663 4.67432 23.3682 4.7112C23.368 4.74778 23.3679 4.78435 23.3339 4.78425C23.266 4.78405 23.232 4.78394 23.1642 4.74717C23.0963 4.71039 23.0625 4.67371 23.0287 4.60046C23.0627 4.60056 23.0628 4.56398 23.0968 4.56408ZM22.8594 4.41707C22.8593 4.45365 22.8592 4.49023 22.8591 4.5268C22.7569 4.63623 22.5873 4.52599 22.4515 4.48902C22.5874 4.48942 22.7234 4.45324 22.8594 4.41707ZM21.2397 34.99C21.3758 34.9173 21.4439 34.8444 21.546 34.7715C21.5798 34.8448 21.6137 34.8814 21.6136 34.918C21.5453 35.0275 21.4773 35.064 21.2397 34.99ZM21.9483 2.36609C22.0499 2.43954 22.0499 2.47612 21.947 2.80501C21.6754 2.73104 21.2673 2.87613 21.1669 2.36376C21.4732 2.14521 21.7451 2.14602 21.9483 2.36609ZM19.9857 33.9622C19.918 33.8889 19.8842 33.8522 19.8165 33.7789C19.8505 33.7423 19.8847 33.6693 19.8846 33.7059C19.9524 33.7427 20.0202 33.816 20.0879 33.8528L19.9857 33.9622ZM19.9795 1.81158C19.9108 2.06742 19.775 2.03043 19.6394 1.9203C19.7415 1.88403 19.8435 1.84776 19.9795 1.81158ZM19.8428 2.06722C19.8425 2.17695 19.8424 2.21352 19.8423 2.2501C19.7742 2.28647 19.6722 2.32274 19.6041 2.35912C19.6042 2.32254 19.5704 2.28586 19.5705 2.24929C19.6386 2.21291 19.7067 2.13996 19.8428 2.06722ZM18.1116 1.58657C18.1116 1.58657 18.1457 1.5501 18.1456 1.58667L18.1795 1.62335C18.1453 1.6964 18.1451 1.76955 18.1108 1.8426C18.077 1.8425 18.0769 1.8425 18.043 1.8424C18.0772 1.73277 18.1115 1.65972 18.1116 1.58657ZM17.8398 1.62234C17.8736 1.65902 17.8733 1.76874 17.8394 1.76864C17.7031 1.87796 17.6354 1.80461 17.5338 1.69458C17.6363 1.512 17.7383 1.47573 17.8398 1.62234ZM15.8304 3.29887C16.239 2.9709 16.614 2.56968 17.1924 2.24221C17.158 2.38842 17.1578 2.46157 17.1238 2.46146C16.8173 2.71659 16.4767 3.00819 16.1364 3.22663C16.0682 3.29958 15.9323 3.29917 15.8303 3.33544C15.7963 3.33535 15.7964 3.29877 15.8304 3.29887ZM15.7962 3.37192C15.796 3.44508 15.7958 3.51823 15.7618 3.51812C15.5575 3.66383 15.3533 3.77294 15.1492 3.88206C15.2858 3.62644 15.4902 3.44416 15.7962 3.37192ZM14.8099 3.73475C14.9121 3.62533 15.0144 3.5159 15.1167 3.3699C15.082 3.62583 15.082 3.62583 14.8099 3.73475ZM2.53838 29.0456C2.40162 29.3379 2.30046 29.0815 2.16457 29.0811C2.26692 28.9351 2.36917 28.8257 2.53838 29.0456ZM1.73077 26.4464L1.79861 26.4831C1.79849 26.5197 1.7643 26.5927 1.73022 26.6292C1.66239 26.5924 1.62853 26.5558 1.59455 26.5557C1.66261 26.5192 1.69668 26.4828 1.73077 26.4464ZM45.5817 6.27692C45.6156 6.27702 45.6496 6.27712 45.6835 6.27722C45.6838 6.20407 45.6501 6.13082 45.6502 6.05766C45.6162 6.05756 45.6162 6.05756 45.5823 6.05746C45.5481 6.13051 45.5818 6.20377 45.5817 6.27692ZM55.956 13.4402C55.9221 13.4035 55.9223 13.3669 55.8884 13.3302C55.8544 13.3302 55.8203 13.3666 55.7863 13.3665C55.8202 13.4032 55.8201 13.4397 55.8201 13.4397C55.8879 13.4765 55.922 13.4401 55.956 13.4402ZM49.8939 7.02127C49.8941 6.98469 49.8941 6.98469 49.8939 7.02127C49.7581 7.02087 49.6562 7.02056 49.5202 7.02016C49.6562 7.02056 49.7921 7.02097 49.8939 7.02127Z" fill="#FF2E2E" fill-opacity="0.1"/>
</svg>
